<?xml version="1.0" encoding="UTF-8" standalone="no"?>
<svg width="154px" height="184px" viewBox="0 0 154 184" version="1.1" xmlns="http://www.w3.org/2000/svg" xmlns:xlink="http://www.w3.org/1999/xlink">
    <!-- Generator: Sketch 41.2 (35397) - http://www.bohemiancoding.com/sketch -->
    <title>dollar-coin-stack</title>
    <desc>Created with Sketch.</desc>
    <defs></defs>
    <g id="Page-1" stroke="none" stroke-width="1" fill="none" fill-rule="evenodd">
        <g id="Login-Screen" transform="translate(-999.000000, -358.000000)" fill="#353534">
            <g id="dollar-coin-stack" transform="translate(999.000000, 358.000000)">
                <g id="Capa_1">
                    <g id="Group">
                        <path d="M33.3359362,22.3488866 L37.8185733,24.5232165 C34.7091384,26.6396907 33.3060747,28.7092165 33.6609999,30.6801031 C34.0261633,32.716433 35.7005401,34.4720206 38.642324,35.8999175 C41.3520414,37.2149485 44.5446619,37.9267629 48.404047,38.0766186 C52.2096813,38.2231546 58.0804514,37.0333196 65.8597977,34.5369897 C67.7922631,33.9152784 69.3070941,33.5534433 70.3590719,33.4633402 C71.3888669,33.3732371 72.2190165,33.5017526 72.9732326,33.8688041 C73.492396,34.1206186 75.0750553,34.8869691 71.0979306,36.8180206 C68.5144847,38.0714021 65.8393212,38.5873608 63.1483739,38.3521443 C61.0192492,38.1676701 58.8632492,38.6039588 57.6389279,39.4694227 L55.2487284,41.1590928 C54.2040027,41.8969897 53.9924126,42.840701 54.68136,43.6705979 C55.3690276,44.5004948 56.8702077,45.1065567 58.675975,45.2867629 C64.5783129,45.8757526 70.4042908,45.1203093 76.0016149,43.0522062 L82.0524071,45.9890928 C84.2028614,47.0323918 87.6864182,47.0323918 89.8360193,45.9914639 C91.9847672,44.9476907 91.9847672,43.2565979 89.8360193,42.2137732 L83.5744902,39.1749278 C86.324734,37.2324948 87.7713101,35.2691959 87.8728392,33.3272371 C87.9939916,31.0552165 86.3430775,29.072 82.9674487,27.4335464 C80.5580525,26.2641031 77.8099417,25.540433 74.8041689,25.2834021 C71.7979694,25.024 68.9483295,25.1686392 66.3397146,25.7125773 C63.7660802,26.2503505 59.8491052,27.3353814 54.7214597,28.9306804 C52.4899528,29.6178351 50.9764016,29.9682887 50.2179196,29.9735052 C49.4931384,29.9777732 48.8434376,29.8502062 48.3400581,29.6050309 C46.5534874,28.7400412 48.0546675,27.646 49.6283683,26.8824948 C51.5821633,25.9345155 53.6669223,25.4868454 55.8233489,25.5499175 C57.9853212,25.6134639 60.0244348,25.0524536 61.0273545,24.1220206 L62.4137811,22.8363918 C63.2908559,22.023567 63.2439306,21.0485567 62.2913489,20.254701 C61.3396204,19.462268 59.6140525,18.9614845 57.7233932,18.9301856 C53.6199971,18.8647423 49.6624957,19.4745979 45.6806786,20.7858351 L41.1186952,18.5726186 C38.9686675,17.5293196 35.4846841,17.5293196 33.335083,18.5726186 C31.1876149,19.6149691 31.1876149,21.3060619 33.3359362,22.3488866 Z" id="Shape"></path>
                        <path d="M133.714233,49.3252784 C134.078543,47.641299 134.264964,45.9260206 134.264964,44.1875052 L134.264964,38.6921649 C134.264964,27.7119175 126.890454,17.6720619 113.499706,10.4225567 C101.085429,3.70134021 84.6744044,0 67.2898947,0 C49.905385,0 33.4947867,3.70134021 21.0800831,10.4225567 C7.68933518,17.6720619 0.314825485,27.7119175 0.314825485,38.6921649 L0.314825485,44.1875052 C0.314825485,55.0155258 7.49011634,64.926866 20.5297784,72.1517113 C20.1680277,73.8276289 19.9346814,75.9161237 19.9346814,77.2648247 L19.9346814,78.2673402 C7.26999446,85.4627835 0.314825485,95.2380206 0.314825485,105.900536 L0.314825485,111.395876 C0.314825485,118.799979 3.6725374,125.774907 9.9626482,131.757278 C9.11159557,134.285856 8.66793906,136.894577 8.66793906,139.56068 L8.66793906,145.056021 C8.66793906,156.036268 16.0424488,166.076124 29.4331967,173.325629 C41.8479003,180.046845 58.2584986,183.748186 75.6430083,183.748186 C93.027518,183.748186 109.438543,180.046845 121.85282,173.325629 C135.243568,166.076124 142.618078,156.036268 142.618078,145.056021 L142.618078,139.56068 C142.618078,132.158 139.263352,125.184021 132.975801,119.202598 C133.826,116.673546 134.264537,114.062454 134.264537,111.395876 L134.264537,110.393361 C146.929224,103.197918 153.884393,93.4226804 153.884393,82.7596907 L153.884393,77.2643505 C153.88482,66.449134 146.72574,56.5482268 133.714233,49.3252784 Z M9.67469806,34.0418969 C11.6144155,28.5593608 16.8977673,23.2361649 24.8157562,18.9496289 C36.0897507,12.8458557 51.174072,9.48453608 67.2898947,9.48453608 C83.4057175,9.48453608 98.4904654,12.8458557 109.764033,18.9496289 C117.682449,23.2361649 122.965374,28.5598351 124.905091,34.0418969 C118.052305,47.2927423 94.2433075,56.9546392 67.2894681,56.9546392 C40.3356288,56.9546392 16.5270582,47.2932165 9.67469806,34.0418969 Z M9.67469806,101.250742 C11.2518116,96.7934845 15.0501939,92.4448247 20.6675679,88.6695052 C22.8316731,97.3141856 29.7552742,105.104309 40.7003657,111.029773 C53.1150693,117.75099 69.5256676,121.45233 86.9101773,121.45233 C88.6092964,121.45233 90.2964709,121.40633 91.9742604,121.336619 C84.3847479,123.15101 76.0034792,124.163959 67.2903213,124.163959 C40.336482,124.163485 16.5270582,114.501588 9.67469806,101.250742 Z M133.258632,134.910412 C126.405845,148.161258 102.596848,157.823155 75.6430083,157.823155 C52.2281828,157.823155 31.1992909,150.528124 21.5860222,139.926784 C33.939723,146.478227 50.1370249,150.088041 67.2898947,150.088041 C84.6744044,150.088041 101.085429,146.386701 113.499706,139.665485 C119.931873,136.182763 124.97164,132.055567 128.476953,127.490186 C130.739175,129.872227 132.36108,132.373299 133.258632,134.910412 Z M86.9097507,95.5277732 C63.3763324,95.5277732 42.2416454,88.1620825 32.6949252,77.4734845 C43.0043934,80.9894021 54.895241,82.8796701 67.2898947,82.8796701 C84.6744044,82.8796701 101.085429,79.1783299 113.499706,72.4575876 C121.017125,68.3877732 126.637911,63.438268 130.122748,57.9372371 C137.626942,62.1507423 142.647086,67.3065361 144.525374,72.6150309 C137.673014,85.8654021 113.86359,95.5277732 86.9097507,95.5277732 Z" id="Shape"></path>
                    </g>
                </g>
            </g>
        </g>
    </g>
</svg>