<?xml version="1.0" encoding="utf-8"?>
<!-- Generator: Adobe Illustrator 16.0.0, SVG Export Plug-In . SVG Version: 6.00 Build 0)  -->
<!DOCTYPE svg PUBLIC "-//W3C//DTD SVG 1.1//EN" "http://www.w3.org/Graphics/SVG/1.1/DTD/svg11.dtd">
<svg version="1.1" id="Layer_1" xmlns="http://www.w3.org/2000/svg" xmlns:xlink="http://www.w3.org/1999/xlink" x="0px" y="0px"
	 width="218px" height="504px" viewBox="0 0 218 504" enable-background="new 0 0 218 504" xml:space="preserve">
<path fill-rule="evenodd" clip-rule="evenodd" fill="#353534" d="M111.771,293.576c-0.405,5.815-0.805,11.63-1.217,17.444
	c-0.085,1.196-0.335,2.247-2.007,2.041c-3.18-0.392-6.369-0.729-9.261-2.231c-1.675-0.869-2.186-2.224-2.107-4.031
	c0.437-10.178,1.771-20.305,1.793-30.508c0.006-2.725,0.397-5.447,0.613-8.171c1.31-1.39,0.441-3.094,0.719-4.632
	c0.314-1.737-0.879-3.769,1.069-5.188c3.109,0.117,6.081,0.915,9.055,1.7c1.414,0.969,1.459,2.361,1.537,3.89
	c0.123,2.399-0.725,4.894,0.602,7.198c0.373,4.074-0.574,8.075-0.719,12.12C110.687,286.656,110.812,290.113,111.771,293.576z"/>
<path fill-rule="evenodd" clip-rule="evenodd" fill="#353534" d="M171.763,419.237c0.948,10.097,1.812,20.202,2.918,30.282
	c0.214,1.935-0.429,2.402-2.158,2.78c-9.271,2.024-18.347,1.434-27.286-1.555c-1.68-0.561-2.407-1.496-2.659-3.308
	c-1.97-14.1-2.785-28.262-3.343-42.464c-0.397-10.166-0.612-20.324-0.501-30.488c0.063-5.702,0.523-11.401,0.804-17.103
	c1.24-4.029,1.131-8.067,0.094-12.113c1.078-8.146-0.008-16.412,1.51-24.534c0.102-0.065,0.297-0.156,0.286-0.193
	c-0.055-0.181-0.162-0.348-0.251-0.521c-0.007-0.522-0.017-1.046-0.023-1.568c5.624-0.354,11.316,0.837,16.889-0.673
	c5.469-0.58,10.963-1.007,16.394-1.81c2.466-0.365,2.231,0.578,2.087,2.19c-1.075,11.997-1.851,24.022-3.182,35.993
	c-0.801,7.208-0.134,14.489-1.554,21.641c-1.203,4.547-1.176,9.097-0.042,13.65c-0.02,5.904-0.037,11.809-0.056,17.713
	C170.669,411.19,170.566,415.217,171.763,419.237z"/>
<path fill-rule="evenodd" clip-rule="evenodd" fill="#353534" d="M95.867,381.495c0.93-12.349,1.753-24.706,2.827-37.045
	c0.693-7.968,1.854-15.899,2.614-23.863c0.564-5.909,2.948-7.855,8.873-5.944c7.442,2.398,15.062,3.678,22.846,4.206
	c3.449,0.234,2.634,2.375,2.385,4.035c-1.035,6.923-2.243,13.823-3.427,20.726c-1.758,10.248-2.841,20.571-3.819,30.896
	c-1.025,10.84-1.71,21.708-2.544,32.563c-1.184,3.469-1.125,6.943-0.048,10.422c-0.003,4.565-0.007,9.132-0.011,13.697
	c-1.419,3.401-0.341,6.938-0.651,10.399c-8.445,2.711-16.791,2.018-25.112-0.56c-2.396-0.742-3.323-2.187-3.36-4.464
	c-0.037-2.352-0.353-4.698-0.545-7.049c0.99-3.979,1.108-7.951-0.099-11.915c-0.587-8.563-0.342-17.127-0.004-25.689
	C96.998,388.447,96.89,384.974,95.867,381.495z"/>
<path fill-rule="evenodd" clip-rule="evenodd" fill="#353534" d="M183.827,298.343c-0.223,4.475-0.491,8.947-0.654,13.424
	c-0.098,2.698-1.895,3.491-4.139,3.912c-12.988,2.44-26.114,2.599-39.27,2.312c-8.468-0.185-16.838-1.146-25.104-2.994
	c-2.049-0.458-3.341-1.144-3.186-3.674c0.677-11.062,1.169-22.134,1.727-33.201c1.11-0.995,0.68-2.315,0.691-3.503
	c0.05-4.83,0.028-9.66,0.033-14.489c0.521,0.034,1.043,0.069,1.563,0.104c1.213,0.995,2.442,1.001,3.685,0.055
	c2.827,0.225,5.654,0.449,8.48,0.674c4.035,1.11,8.071,1.109,12.107,0.001c6.38-0.815,12.804-1.112,19.182-2.138
	c6.795-1.094,10.821-5.049,13.495-10.738c2.877-6.122,4.607-12.602,5.422-19.314c0.158-1.308,0.263-2.696,1.848-4.146
	c2.632,13.527,3.404,26.814,4.104,40.108c-0.209,0.562-0.599,1.125-0.602,1.688c-0.037,10.078-0.037,20.157,0.002,30.236
	C183.214,297.223,183.613,297.782,183.827,298.343z"/>
<path fill="#F6DB01" d="M24.521,36.205c0.011-0.194,0.114-0.296,0.308-0.307c1.939,1.458,2.576-0.761,3.427-1.471
	C42.29,22.725,58.338,20.106,75.823,23.511c9.717,1.892,17.471,7.165,24.422,13.885l-0.026-0.025
	c0.029,1.663,1.431,2.554,2.223,3.754c3.265,4.954,3.759,10.081,1.575,15.577c-1.336,3.363-3.262,6.372-5.144,9.425
	c-0.502,0.814-1.763,1.456-0.922,2.748l0.042-0.049c-5.126,2.026-7.068,5.756-5.162,10.355c2.374,5.729,4.97,11.366,7.364,17.087
	c0.486,1.162,1.062,2.055,2.302,2.105c3.42,0.14,5.79-1.924,8.03-4.12c1.795-1.759,1.396-3.701,0.508-5.806
	c-1.021-2.417-2.249-4.702-3.756-6.827c-1.018-1.437-1.357-2.893-0.805-4.57c1.38-4.192,6.02-7.279,9.792-6.495
	c5.202,1.082,8.004,5.12,7.926,10.141c-0.043,2.716-1.588,4.664-2.129,7.051c0,0,0.06-0.061,0.06-0.06
	c-2.595,0.688-4.726,2.491-8.302,3.198c4.436,0.218,2.546,2.479,2.133,3.851c-1.105,3.671-2.512,7.251-3.792,10.868
	c-1.399,3.951-2.29,7.988-0.545,12.015c3.09,7.132,6.973,13.747,13.368,18.507c1.158,0.863,2.051,1.906,2.175,3.33
	c0.524,6.017-0.296,11.682-4.649,16.318c-4.213,4.487-7.589,5.27-13.418,3.137c-5.514-2.018-10.455-5.056-15.336-8.273
	c-2.765-1.822-4.622-4.805-7.878-5.932c0,0,0.046,0.043,0.046,0.042c-0.62-2.675-2.046-3.68-4.676-2.299
	c-1.313,0.689-2.646,0.497-3.975-0.018c-0.82-0.318-1.983-0.743-1.645-1.634c0.379-0.999,0.597-2.906,2.109-2.607
	c4.901,0.967,7.251-4.174,11.595-4.561c1.718-0.153,1.619-3.08,3.763-3.263c1.741-0.148,2.448-1.516,3.535-2.752
	c1.885-2.145,3.209-5.631,7.348-4.982c-2.304-3.489-5.625-3.775-9.172-3.491c-0.74,0.059-1.433,0.639-0.786,1.065
	c2.181,1.436-1.184,1.776-0.436,2.82l0.052-0.049c-0.449,0.134-0.987,0.15-1.332,0.417c-8.84,6.834-18.917,11.261-29.362,14.892
	c-7.74,2.69-15.592,5.114-23.939,4.833c-4.975-0.167-6.145-1.971-5.936-6.868c0.145-3.393,2.256-4.954,4.367-6.857
	c4.046-3.646,4.415-6.491,1.455-9.66c-0.313-0.197-0.626-0.393-0.939-0.59c-4.155-1.374-8.299,0.153-9.828,3.85
	c2.043-2.379,5.038-2.322,7.66-3.221c0.782,0.195,1.564,0.39,2.346,0.584c1.922,3.164,1.333,5.686-2.276,8.341
	c-4.491,3.304-8.752,6.861-12.675,10.813c-0.52,0.523-1.939,0.908-0.859,2.154l-0.025,0.024c-2.809-0.444-3.524,2.347-5.312,3.484
	c-0.95,0.604-1.821,1.562-2.97,1.157c-1.372-0.483-1.503-1.843-1.488-3.137c0.028-2.365-0.111-4.709,0.404-7.081
	c1.729-7.956,6.575-14.105,11.454-20.251c4.556-5.739,9.701-11.063,12.529-18.006c0.471-1.157,0.345-3.062,2.438-2.555
	c2.062,0.5,4.557-0.828,5.979,2.334c2.73,6.069,9.311,9.432,15.873,8.739c7.874-0.831,15.085-7.088,15.788-13.74
	c0.299-2.833-1.509-6.27,3.574-7.82c-2.602-0.581-3.505,0.473-4.578,0.991c-14.925,7.217-30.467,9.898-46.833,6.312
	C22.958,90.76,18.532,87.113,16.701,81c-4.463-14.883-3.683-29.01,6.599-41.632C23.94,38.582,25.976,37.944,24.521,36.205z
	 M97.202,55.497c-0.171-1.816-1.39-2.841-3.113-3.059c-1.806-0.229-2.324,1.226-2.459,2.646c-0.164,1.708,0.607,2.976,2.437,3.099
	C95.808,58.299,96.82,57.278,97.202,55.497z M115.618,77.371c1.51-0.151,2.591-0.259,4.185-0.419
	c-4.688-2.161-7.971-0.858-9.225,3.182c1.552,0.024,2.117-2.997,3.533-1.768c2.043,1.775,1.274,4.463,0.22,7.705
	C117.671,83.081,117.122,80.458,115.618,77.371z M88.158,47.05c-0.526-2.197-1.824-3.688-4.113-3.58
	c-2.19,0.104-3.284,1.76-3.246,3.812c0.044,2.39,1.717,3.631,3.927,3.518C86.825,50.692,87.924,49.145,88.158,47.05z M82.301,64.367
	c-0.028-0.688-0.489-1.954-2.026-1.872c-1.881,0.102-2.829,1.399-2.71,3.292c0.086,1.37,0.677,2.445,2.283,2.32
	C81.693,67.964,82.36,66.773,82.301,64.367z"/>
<path fill="#0A0B09" d="M122.062,87.747c0.539-2.387,2.086-4.335,2.127-7.051c0.078-5.021-2.723-9.059-7.924-10.141
	c-3.771-0.784-8.413,2.302-9.792,6.495c-0.552,1.677-0.213,3.133,0.805,4.57c1.507,2.125,2.733,4.41,3.756,6.827
	c0.89,2.104,1.286,4.047-0.509,5.806c-2.24,2.196-4.609,4.26-8.029,4.12c-1.24-0.05-1.816-0.944-2.302-2.105
	c-2.394-5.721-4.99-11.357-7.364-17.087c-1.906-4.6,0.036-8.329,5.162-10.355c0.138,1.179-0.679,1.938-1.441,2.461
	c-3.648,2.501-3.464,5.41-1.647,9.041c2.383,4.765,4.418,9.715,6.381,14.673c0.737,1.862,1.676,2.172,3.382,1.605
	c4.694-1.561,6.271-4.948,3.946-9.383c-1.877-3.582-4.177-6.942-6.29-10.4c2.651,1.084,3.074-1.002,4.005-2.379
	c0.762-1.127,1.476-2.55,2.583-3.134c3.64-1.918,1.819-3.626,0.049-5.425c-0.698-0.71-1.412-1.422-2.21-2.011
	c-2.023-1.492-3.742-2.086-5.262,0.899c-0.779,1.532-1.609,3.394-3.538,4.102c-0.841-1.292,0.42-1.934,0.922-2.748
	c1.881-3.053,3.808-6.062,5.144-9.425c2.185-5.496,1.69-10.623-1.575-15.577c-0.792-1.2-2.194-2.091-2.223-3.754
	c2.754,0.887,2.755,0.888,6.786-1.146c0.48-0.242,0.583,0.171,0.786,0.42c-1.245,2.159-4.528,2.959-2.706,7.031
	c1.651,3.691,2.555,6.674,7.343,5.372c0.214-0.058,0.481,0.104,0.728,0.146c8.13,1.411,13.984,6.118,18.539,12.74
	c0.508,0.739,0.593,2.118,1.99,1.774c1.334-0.328,0.918-1.568,1.096-2.491c1.981-10.351-1.406-19.085-8.004-26.897
	c-1.159-1.374-2.522-1.793-4.229-1.92c-5.49-0.407-10.214,1.689-14.807,4.296c-0.418-2.258,1.703-2.297,2.828-2.943
	c3.639-2.089,7.809-2.533,12.496-2.847c-2.662-2.562-4.984-4.25-7.623-5.34c-6.139-2.536-12.362-5.245-18.234,0.648
	c-0.479-2.456,2.402-2.454,3.085-4.316c-5.553-0.762-10.623,1.001-16.682,2.03c1.479,0.83,2.011,1.143,2.556,1.432
	c3.526,1.873,6.926,5.529,10.932,0.793c-2.365,2.956-2.497,5.445,1.098,7.707c1.005,0.631,2.941,1.47,2.049,3.533
	C93.294,30.673,85.54,25.4,75.823,23.508c-17.484-3.405-33.533-0.786-47.566,10.916c-0.852,0.71-1.488,2.929-3.427,1.471
	C39.268,21.873,56.544,18.199,75.812,22.05c3.538,0.708,6.727,0.936,10.443-0.078c17.754-4.847,38.438,1.278,47.358,19.395
	c6.791,13.795,1.977,30.517-5.508,37.329c-1.168-1.649,0.763-2.161,1.193-3.22c1.215-2.975,4.721-5.477,3.12-9.037
	c-3.464-7.704-9.177-13.311-17.509-15.552c-6.631-1.784-6.86-1.473-8.971,5.043c-0.114,0.354-0.226,0.724-0.419,1.036
	c-1.832,2.961-1.249,4.909,2.15,6.212c1.707,0.654,3.102,2.08,4.023,3.774c0.703,1.292,1.586,1.922,3.207,2.016
	c4.906,0.285,8.522,2.772,10.224,7.404c0.606,1.65,1.817,1.77,2.938,2.366c-1.549,1.795-2.008,4.116-3.002,6.177
	C124.451,86.186,124.16,87.979,122.062,87.747z"/>
<path fill="#0A0B09" d="M24.521,36.205c1.454,1.74-0.581,2.377-1.222,3.164C13.018,51.99,12.238,66.117,16.697,81.001
	c1.831,6.113,6.257,9.76,12.45,11.117c16.366,3.586,31.908,0.905,46.833-6.312c1.072-0.519,1.976-1.572,4.578-0.991
	c-5.083,1.551-3.274,4.987-3.574,7.82c-0.702,6.652-7.914,12.91-15.788,13.74c-6.562,0.692-13.142-2.67-15.873-8.739
	c-1.422-3.162-3.917-1.834-5.979-2.334c-2.093-0.508-1.966,1.398-2.438,2.555c-2.829,6.943-7.973,12.267-12.529,18.006
	c-4.878,6.146-9.724,12.295-11.454,20.251c-0.515,2.372-0.376,4.716-0.404,7.081c-0.016,1.293,0.116,2.653,1.488,3.137
	c1.149,0.404,2.02-0.553,2.97-1.157c1.788-1.137,2.503-3.928,5.312-3.484c-1.194,2.083-3.067,3.565-4.872,5.002
	c-3.211,2.561-5.988,1.329-6.472-2.801c-0.687-5.854,0.697-11.314,3.458-16.479c2.651-4.96,6.103-9.34,9.73-13.593
	c1.247-1.462,2.664-2.804-0.104-4.134c-0.314-0.151-0.731-0.516-0.746-0.8c-0.319-6.271-7.932-11.124-3.583-18.281
	c0.546-0.899-0.076-1.287-0.489-1.896C8.276,72.586,10.586,49.848,24.521,36.205z M75.493,91.214
	c-0.257-0.744,0.509-2.151-0.925-2.692c-1.19-0.45-6.127,3.174-6.487,4.599c-0.536,2.124-2.393,3.424-3.646,1.677
	c-1.768-2.466-3.352-1.617-5.409-1.229c-3.537,0.667-7.113,1.231-10.698,1.507c-2.478,0.19-2.305,1.141-1.382,2.799
	c2.311,4.155,6.127,5.965,10.552,6.794C65.817,106.225,75.516,99.099,75.493,91.214z M29.139,103.956
	c2.393,0.059,3.841-1.081,5.482-4.725c0.556-1.236,2.108-2.845,0.668-3.946c-1.069-0.817-2.992-1.07-4.386,0.492
	c-1.149,1.287-2.95,1.161-3.263-0.391c-0.484-2.398-2.417-2.43-3.844-3.388c-2.938-1.974-3.606-0.307-3.787,2.245
	C19.65,99.305,23.907,103.828,29.139,103.956z M30.271,105.436c-1.303-0.194-2.617-0.541-3.929-0.533
	c-0.875,0.005-1.854-1.403-2.534-0.1c-0.44,0.841-0.07,1.876,0.47,2.805c1.484,2.551,2.741,2.729,4.454,0.383
	C29.28,107.241,30.309,106.752,30.271,105.436z"/>
<path fill="#0A0B09" d="M38.886,119.733c2.96,3.169,2.591,6.014-1.455,9.66c-2.11,1.903-4.222,3.464-4.367,6.857
	c-0.209,4.897,0.961,6.701,5.936,6.868c8.348,0.281,16.199-2.143,23.939-4.833c10.444-3.631,20.521-8.058,29.362-14.892
	c0.345-0.267,0.883-0.283,1.331-0.418c0.117,1.817-1.473,2.248-2.554,3.007c-11.572,8.113-24.511,13.209-37.998,17.065
	c-1.051,0.3-2.229,0.223-3.007,1.322c2.336,1.066,5.218,2.313,6.856,0.192c1.544-2,2.569-1.454,4.192-0.948
	c2.073,0.646,4.403,0.479,5.216-1.597c1.008-2.573,2.66-2.063,4.436-1.787c2.068,0.322,4.216,0.008,4.395-2.23
	c0.198-2.481,1.551-1.71,2.704-1.557c4.773,0.635,7.188-4.434,11.563-4.711c0.065-0.004,0.189-0.216,0.167-0.3
	c-0.905-3.359,1.653-2.311,3.228-2.59c0.584-0.103,1.617-0.502,1.606-0.724c-0.163-3.129,2.752-3.46,4.338-4.992
	c0.595-0.573,1.257-1.492,0.323-2.245c-0.751-0.604-1.525-0.169-2.326,0.386c-0.984,0.683-1.462,2.415-3.189,1.758
	c-0.748-1.043,2.617-1.384,0.436-2.82c-0.646-0.426,0.046-1.006,0.786-1.065c3.547-0.284,6.869,0.001,9.172,3.491
	c-4.139-0.649-5.462,2.838-7.348,4.982c-1.087,1.237-1.794,2.604-3.535,2.752c-2.145,0.183-2.045,3.109-3.763,3.263
	c-4.343,0.387-6.694,5.528-11.595,4.561c-1.513-0.299-1.73,1.609-2.109,2.607c-0.339,0.891,0.824,1.316,1.645,1.634
	c1.328,0.515,2.661,0.707,3.975,0.018c2.629-1.381,4.056-0.376,4.676,2.299c-1.986-0.67-3.895-1.05-6.089-0.489
	c-1.779,0.455-3.496-0.612-5.238-1.405c-2.336-1.064-5.116-2.573-7.377,0.575c-0.467,0.65-1.492,1.427-2.145,1.335
	c-5.65-0.8-11.333,5.081-16.948-0.077c-0.577-0.53-1.384-0.327-2.148-0.221c-1.232,0.168-2.487,0.2-3.734,0.231
	c-9.095,0.22-10.489-1.033-10.916-10.015c-3.675,1.592-5.548,5.356-9.012,6.986c-1.079-1.247,0.34-1.631,0.86-2.155
	c3.923-3.953,8.184-7.51,12.675-10.814c3.609-2.655,4.198-5.178,2.276-8.341C38.378,120.149,38.632,119.941,38.886,119.733z"/>
<path fill="#1B1912" d="M97.202,55.497c-0.382,1.782-1.394,2.802-3.136,2.686c-1.83-0.123-2.601-1.391-2.437-3.099
	c0.136-1.421,0.654-2.875,2.459-2.646C95.812,52.655,97.031,53.68,97.202,55.497z"/>
<path fill="#1B1912" d="M115.618,77.371c1.504,3.087,2.053,5.71-1.287,8.7c1.056-3.242,1.823-5.93-0.22-7.705
	c-1.416-1.229-1.981,1.792-3.533,1.768c1.254-4.04,4.537-5.342,9.225-3.182C118.209,77.112,117.128,77.22,115.618,77.371z"/>
<path fill="#1B1912" d="M88.158,47.05c-0.234,2.095-1.333,3.642-3.432,3.749c-2.209,0.113-3.883-1.128-3.927-3.518
	c-0.038-2.051,1.055-3.708,3.246-3.812C86.334,43.362,87.631,44.853,88.158,47.05z M86.652,47.238
	c-0.325-1.322-0.895-2.376-2.415-2.374c-1.643,0.002-2.014,1.091-1.979,2.482c0.041,1.616,1.016,2.093,2.439,2.035
	C86.086,49.323,86.564,48.445,86.652,47.238z"/>
<path fill="#1B1912" d="M82.301,64.367c0.06,2.406-0.608,3.597-2.454,3.74c-1.606,0.125-2.197-0.951-2.283-2.32
	c-0.119-1.893,0.829-3.189,2.71-3.292C81.812,62.413,82.272,63.679,82.301,64.367z"/>
<path fill="#1B1912" d="M35.778,119.772c-2.622,0.899-5.617,0.842-7.66,3.221c1.529-3.697,5.672-5.224,9.828-3.85
	C37.186,119.223,36.329,118.968,35.778,119.772z"/>
<path fill="#0A0B09" d="M35.778,119.772c0.55-0.804,1.408-0.55,2.168-0.629c0.313,0.197,0.626,0.393,0.939,0.59
	c-0.254,0.208-0.507,0.416-0.761,0.624C37.342,120.162,36.561,119.967,35.778,119.772z"/>
<path fill="#353534" d="M151.131,216.585c-0.076,4.741-0.543,9.422-1.854,14.013c-0.531,1.868-1.496,2.973-3.408,3.519
	c-8.303,2.366-16.79,2.355-25.247,1.711c-3.476-0.265-0.433-2.315-0.006-2.882c7.306-9.683,13.854-19.825,19.05-30.799
	c1.811-3.822,3.232-7.83,5.07-11.637c1.562-3.239,0.949-5.728-1.369-8.404c-4.398-5.078-4.271-5.188,1.138-8.836
	c9.138-6.163,9.706-7.712,6.729-18.471c-2.035-7.353-4.832-14.388-8.707-20.982c-0.401-0.687-1.16-1.329-0.758-2.708
	c7.312,3.715,12.407,9.514,16.465,16.248c8.674,14.395,13.017,30.36,16.255,46.653c2.948,14.842,3.129,29.698-0.749,44.451
	c-0.475,1.804-1.02,3.592-1.606,5.362c-2.501,7.523-6.931,12.642-15.407,13.761c-13.373,1.766-26.717,2.218-40.508,0.686
	c5.053-6.322,5.816-12.933,2.139-19.934c0.209-0.223,0.42-0.446,0.629-0.671c5.76-0.003,11.519-0.006,17.277-0.009
	c0.275,0.438,0.521,0.362,0.743-0.046c3.13-0.734,6.365-1.181,9.354-2.29c2.551-0.947,6.127-0.356,5.378-5.933
	c-0.597-4.435,1.098-9.521,1.323-14.346c0.469-9.981-0.752-19.832-2.869-29.577c-0.117-0.541-0.512-1.022-1.202-1.44
	c0.633,6.922,2.123,13.714,2.14,20.643c-0.084,0.066-0.25,0.161-0.238,0.192c0.062,0.169,0.166,0.322,0.258,0.48
	c0,3.523,0,7.047,0,10.571c-0.088,0.062-0.26,0.148-0.248,0.181C150.953,216.263,151.05,216.421,151.131,216.585z"/>
<path fill="#353534" d="M126.184,130.393c0.146-2.839-2.473-1.884-3.781-2.696c-1.317-0.818-3.371,0.394-4.396-1.429
	c-0.419-0.745-1.124-1.625-0.993-2.309c0.16-0.849,1.314-1.021,2.203-1.06c7.526-0.337,14.299,1.705,18.93,7.819
	c7.055,9.311,10.802,20.146,12.996,31.533c0.455,2.364-0.053,4.347-2.299,5.821c-3.229,2.118-6.24,4.57-9.461,6.706
	c-1.797,1.191-2.019,2.35-0.662,3.927c0.081,0.095,0.129,0.224,0.223,0.301c6.076,5.066,4.877,10.743,1.899,16.999
	c-6.077,12.769-12.886,25.064-21.557,36.271c-0.687,0.886-1.468,1.704-2.269,2.487c-1.045,1.021-2.42,0.921-3.463,0.307
	c-1.214-0.714-0.146-1.826,0.149-2.656c4.862-13.607,9.901-27.154,14.646-40.802c4.896-14.092,7.726-28.614,7.896-43.572
	c0.069-6.105-2.022-11.508-6.269-15.96c-0.97-1.018-1.959-2.391-3.778-1.689L126.184,130.393z"/>
<path fill="#353534" d="M98.664,173.094c1.99,20.781,5.088,41.334,13.076,60.927c-2.568-0.836-3.461-2.837-4.566-4.544
	c-4.26-6.583-8.636-13.134-9.58-21.235c-0.096-0.821-0.414-1.867-1.004-2.341c-4.749-3.812-5.509-9.573-7.271-14.798
	c-1.132-3.356-2.217-6.896,0.81-10.651c-3.359,1.712-3.658,2.169-3.519,5.388c0.247,5.694,2.8,10.772,4.444,16.077
	c-0.962,0.718-1.722-0.085-2.516-0.244c-7.961-1.594-8.057-1.634-6.149-9.464c1.615-6.625,3.492-13.186,5.305-19.973
	c1.691,1.014,3.147,1.887,4.606,2.756c0.588,1.958-2.279,2.541-1.486,4.611c0.495-1.781,5.216-1.553,2.043-5.073
	c-6.063-4.148-6.867-9.506-4.143-16.062c3.917-9.427,2.577-7.543,9.333-2.871c0.235,0.344,0.47,0.687,0.705,1.03
	c-0.031,3.26-0.062,6.521-0.093,9.78c-0.09,0.062-0.265,0.151-0.255,0.183c0.055,0.174,0.154,0.334,0.238,0.499
	c0,1.025,0,2.049,0,3.074c-0.087,0.066-0.258,0.164-0.247,0.193c0.064,0.172,0.17,0.328,0.263,0.489
	c-0.002,0.521-0.004,1.043-0.006,1.565c-0.088,0.064-0.261,0.161-0.25,0.19C98.467,172.772,98.572,172.931,98.664,173.094z"/>
<path fill="#EFB384" d="M112.725,230.168c-2.766-4.884-4.616-9.68-4.87-14.775c-0.548-11.009,0.53-21.926,3.047-32.678
	c0.171-0.726,0.43-1.433,0.677-2.138c0.438-1.253,1.065-2.167,2.662-2.038c1.825,0.148,1.329,1.604,1.385,2.499
	c0.394,6.349-0.196,12.994,2.046,18.909C121.893,211.087,115.287,219.951,112.725,230.168z"/>
<path fill="#F8F8F8" d="M126.198,130.39c6.342,5.58,8.862,12.643,8.209,20.974c-0.226,2.858-0.403,5.729-0.405,8.594
	c-0.003,6.221-4.062,9.894-8.305,13.434c-1.498,1.25-2.401,0.441-2.896-1.216c-1.021-3.427-1.848-6.933-3.51-10.132
	c-0.812-1.562,0.393-1.846,1.271-2.488c9.601-7.015,11.196-19.913,3.629-29.124c0.156-0.178,0.297-0.369,0.422-0.571
	c0.523,0.177,1.049,0.354,1.572,0.531C126.184,130.393,126.198,130.39,126.198,130.39z"/>
<path fill="#F8F8F8" d="M120.73,171.153c2.306,6.104,2.627,6.102,11.256-0.631c-2.145,12.979-6.195,24.635-11.174,36.794
	c-2.008-6.484-2.461-12.567-3.393-18.586C116.438,182.372,117.451,176.604,120.73,171.153z"/>
<path fill="#353534" stroke="#000000" stroke-miterlimit="10" d="M183.745,246.523c7.837,0.513,12.379-2.636,19.04-13.122
	c1.98,2.619,3.887,5.142,5.801,7.659c0.596,0.783,0.354,1.681,0.141,2.646c-1.295,5.882-8.504,12.864-14.33,13.798
	c-1.924,0.309-3.73,0.367-4.881-1.375C187.518,253.115,185.105,250.39,183.745,246.523z"/>
<path fill="#F4F4F4" d="M102.976,172.402c-1.084,1.792,0.395,2.122,1.5,2.286c2.417,0.36,1.516-2.001,2.443-3.266
	c2.179,4.218,4.261,7.895,2.43,13.101c-2.638,7.509-2.824,15.575-3.408,23.532c-2.792-11.206-4.515-22.562-5.449-34.062
	c-0.258-3.176,2.691,0.7,2.678-1.424C103.17,172.57,102.976,172.402,102.976,172.402z"/>
<path fill="#B4E3ED" d="M112.364,161.474c1.218,0.787,4.435-1.768,5.92,2.18c1.676,4.45,0.676,8.342-1.382,12.046
	c-1.291,2.327-5.689,1.744-6.883-0.86c-1.709-3.728-3.052-7.616-1.417-11.816C109.13,161.667,109.602,160.385,112.364,161.474z"/>
<path fill="#FAFAFA" d="M163.184,462.308c-3.533-0.465-6.556-0.277-9.451-1.208c-1.356-0.435-2.276-0.982-2.727-2.592
	c-1.232-4.41-1.021-4.837,3.443-3.998c4.466,0.84,8.908,0.804,13.394,0.279c0.974-0.113,2.812-1.479,2.778,0.729
	c-0.03,1.946,1.63,4.738-1.396,5.793C167.154,462.03,164.842,462.055,163.184,462.308z"/>
<path fill="#F4F4F4" d="M67.317,256.257c3.824-4.561,6.378-9.375,6.275-15.27c-0.017-0.967-0.323-2.348,1.179-2.116
	c1.263,0.194,2.936-0.672,3.783,1.315c1.84,4.314,0.201,12.63-3.252,15.694C72.83,258.073,70.199,257.079,67.317,256.257z"/>
<path fill="#017C7A" d="M77.683,256.316c2.826-4.239,3.581-8.932,3.116-13.917c-0.073-0.785-0.515-1.816,0.483-2.349
	c0.886-0.472,1.757,0.02,2.425,0.55c3.693,2.93,4.59,7.571,6.782,11.418c0.609,1.067-0.958,1.576-1.779,1.979
	c-3.392,1.664-6.959,2.68-10.785,2.558L77.683,256.316z"/>
<path fill="#F1F1F1" d="M122.492,444.064c0.889,5.271,0.826,5.36-3.939,6.224c-4.391,0.796-8.635,0.101-12.9-0.989
	c-1.784-0.456-1.945-1.408-2.057-2.93c-0.163-2.219,0.488-2.873,2.716-2.344C111.684,445.301,117.1,445.132,122.492,444.064z"/>
<path fill="#F8F8F8" d="M102.976,172.402c0,0,0.194,0.167,0.194,0.168c-4.785-4.002-2.409-9.393-2.751-14.255
	c-0.015-0.213,0.136-0.614,0.257-0.634c2.261-0.371,3.735,1.617,5.782,1.96c0.979,0.165,1.56,0.745,1.102,1.864
	c-1.327,3.239-1.71,6.696-2.358,10.095C104.94,172.975,104.269,173.67,102.976,172.402z"/>
<path fill="#F1F1F1" d="M60.526,210.188c4.847-0.691,8.757-1.225,12.658-1.819c1.203-0.184,2.119,0.546,3.185,0.78
	c0.99,0.218,1.627,0.652,1.157,1.793c-0.353,0.855-0.357,1.888-1.905,1.637c-3.977-0.643-7.759,0.167-11.634,1.311
	C61.175,214.719,62.825,211.105,60.526,210.188z"/>
<path fill="#017C7A" d="M100.268,221.14c2.987,4.733,5.593,8.862,8.374,13.268c-3.497,0.256-5.71-0.578-6.412-4.121
	C101.67,227.463,100.535,224.755,100.268,221.14z"/>
<path fill="#017C7A" d="M87.336,216.736c-2.545-1.151-4.424-2.841-6.94-3.271c-1.506-0.256-1.321-1.619-1.07-2.696
	c0.286-1.228,1.316-0.832,2.123-0.697C85.05,210.673,87.158,212.938,87.336,216.736z"/>
<path fill="#017C7A" d="M78.019,223.667c3.735,0.194,5.254,2.361,6.023,5.531C80.049,229.596,78.484,227.433,78.019,223.667z"/>
<path fill="#008E8B" d="M124.913,433.335c-0.861-0.698-0.856-1.415-0.044-2.147C124.884,431.903,124.898,432.619,124.913,433.335z"
	/>
<path fill="#008E8B" d="M112.163,261.585c-0.808-0.515-0.646-1.325-0.642-2.088C112.604,259.927,112.139,260.83,112.163,261.585z"/>
<path fill="#008E8B" d="M183.412,266.834c-0.859-0.695-0.854-1.41-0.049-2.143C183.38,265.406,183.396,266.12,183.412,266.834z"/>
<path fill="#008E8B" d="M151.148,205.34c-0.09-0.158-0.194-0.312-0.258-0.48c-0.011-0.031,0.155-0.126,0.239-0.192
	C151.205,204.89,151.211,205.114,151.148,205.34z"/>
<path fill="#008E8B" d="M151.131,216.585c-0.081-0.164-0.178-0.322-0.229-0.493c-0.012-0.032,0.16-0.119,0.248-0.181
	C151.212,216.137,151.206,216.362,151.131,216.585z"/>
<path fill="#008E8B" d="M124.273,441.564c0.25-0.234,0.5-0.469,0.75-0.702C125.003,441.342,124.729,441.55,124.273,441.564z"/>
<path fill="#0A0B09" d="M85.875,144.706c3.256,1.127,5.113,4.11,7.878,5.932c4.882,3.218,9.823,6.256,15.336,8.273
	c5.83,2.133,9.206,1.35,13.418-3.137c4.354-4.636,5.175-10.301,4.649-16.318c-0.124-1.424-1.018-2.467-2.176-3.33
	c-6.396-4.76-10.277-11.375-13.367-18.507c-1.745-4.026-0.854-8.064,0.545-12.015c1.279-3.617,2.686-7.197,3.792-10.868
	c0.413-1.371,2.303-3.633-2.134-3.851c3.576-0.707,5.709-2.51,8.303-3.198c0.251,0.279,0.449,0.566,0.076,0.894
	c-7.243,6.354-7.328,15.696-9.77,23.991c-0.838,2.848,1.254,5.702,2.543,8.396c0.514,1.073,1,0.808,1.984,0.646
	c6.828-1.13,13.146,0.311,18.673,4.514c3.781,2.875,8.403,4.152,12.209,7.067c8.728,6.686,13.981,15.671,18.032,25.568
	c6.728,16.439,10.844,33.456,12.558,51.191c0.941,9.75,3.433,19.348,4.64,29.12c2.352,19.012,3.229,38.077,2.196,57.202
	c-0.269,4.981-0.411,9.984-0.614,14.959c-0.158,3.908-1.75,5.349-5.037,5.771c-1.883,0.242-2.729,0.805-2.904,2.943
	c-2.278,27.762-4.146,55.542-4.182,83.415c-0.02,15.243,0.431,30.466,2.576,45.59c0.246,1.733,0.584,3.333-1.688,4.323
	c-1.52,0.662-1.492,7.172-0.145,9.262c3.325,5.154,4.836,10.794,5.049,16.909c0.117,3.388-0.74,5.548-4.465,5.892
	c-1.598,0.147-3.16,0.637-4.744,0.95c-2.226,0.44-4.013,0.066-4.527-3.222c-3.208,5.26-8.145,5.637-12.977,5.85
	c-10.729,0.473-21.477,0.703-31.965-2.24c-2.189-0.613-5.496-0.796-5.746-3.253c-0.27-2.64,3.157-3.046,5.133-4.019
	c10.043-4.945,19.553-10.741,28.535-17.404c3.145-2.332,2.416-8.12-1.283-9.453c-3.155-1.136-4.399-3.242-4.773-6.386
	c-3.883-32.598-3.952-65.283-2.398-98.012c0.438-9.229,0.869-18.46,1.304-27.712c-3.464-1.449-4.491-0.049-4.992,3.545
	c-2.065,14.819-4.166,29.632-5.531,44.538c-2.153,23.514-4.292,47.027-2.925,70.685c0.102,1.75-0.337,2.682-1.66,4.029
	c-1.962,2.001-1.283,4.997-0.055,7.394c2.895,5.646,3.525,11.547,2.898,17.782c-0.231,2.322-1.244,3.387-3.233,3.84
	c-2.05,0.468-4.162,0.674-6.194,1.195c-3.179,0.816-4.538-0.389-4.177-4.5c-4.142,6.798-10.374,6.693-16.402,7.225
	c-10.002,0.881-19.94,0.732-29.773-1.533c-0.716-0.164-1.401-0.461-2.11-0.663c-1.375-0.395-2.744-0.992-2.818-2.567
	c-0.083-1.756,1.389-2.48,2.788-3.101c6.575-2.912,13.057-6.028,19.262-9.662c4.925-2.884,9.747-5.949,14.524-9.072
	c2.894-1.892,2.644-6.274-0.488-7.717c-2.115-0.976-2.896-2.368-3.118-4.568c-1.876-18.697-1.756-37.418-0.911-56.156
	c0.934-20.71,3.065-41.311,5.521-61.883c0.119-0.991,0.315-1.974,0.517-2.951c0.38-1.85,0.417-3.144-1.991-3.955
	c-3.272-1.102-4.369-3.52-4.037-7.348c1.166-13.43,1.794-26.905,2.02-40.394c0.022-1.367,0.3-2.741,0.222-4.1
	c-0.093-1.634,0.872-3.998-1.104-4.664c-2.214-0.746-4.19-2.393-7.251-0.701c-7.733,4.273-16.029,4.373-24.627,2.176
	c-8.425-2.153-15.518-5.812-20.142-13.448c-3.379-5.582-3.399-6.96,0.625-12.209c0.923-1.205,0.285-1.646-0.324-2.441
	c-4.626-6.049-3.63-10.922,3.186-14.519c1.583-0.836,1.724-1.329,1.219-2.979c-1.88-6.146-0.153-9.221,6.053-10.734
	c4.5-1.097,9.067-1.436,13.681-0.252c3.321,0.852,6.487-1.597,9.901-0.838c0.128,0.028,0.748-1.477,0.893-2.31
	c1.409-8.09,3.479-16.01,5.986-23.825c0.598-1.862,0.769-3.572-0.221-5.641c-1.452-3.036,1.186-5.925,1.389-8.997
	c0.047-0.722,0.323-1.494,0.702-2.116c2.65-4.359,3.221-8.333-1.871-11.416C85.445,145.351,85.601,144.992,85.875,144.706z
	 M77.925,256.555c3.826,0.122,7.394-0.894,10.785-2.558c0.821-0.403,2.389-0.912,1.779-1.979c-2.191-3.847-3.089-8.488-6.782-11.418
	c-0.668-0.53-1.539-1.021-2.425-0.55c-0.999,0.533-0.556,1.564-0.483,2.349c0.464,4.986-0.29,9.678-3.115,13.917
	c-0.105,0.162-0.21,0.322-0.315,0.483C77.554,256.719,77.739,256.637,77.925,256.555z M102.976,172.402
	c1.293,1.268,1.964,0.572,2.226-0.802c0.648-3.398,1.032-6.856,2.358-10.095c0.458-1.119-0.123-1.699-1.102-1.864
	c-2.047-0.343-3.521-2.331-5.782-1.96c-0.122,0.02-0.272,0.421-0.257,0.634c0.342,4.862-2.034,10.253,2.751,14.256
	c0.013,2.123-2.936-1.753-2.678,1.423c0.934,11.499,2.657,22.855,5.449,34.062c0.584-7.957,0.77-16.023,3.408-23.532
	c1.831-5.206-0.251-8.883-2.43-13.101c-0.927,1.264-0.026,3.626-2.443,3.266C103.37,174.524,101.891,174.194,102.976,172.402z
	 M124.613,129.86c-0.393-0.158-0.793-0.416-1.137,0.081c0.237,0.163,0.477,0.327,0.715,0.49c7.567,9.211,5.972,22.109-3.629,29.124
	c-0.881,0.643-2.084,0.926-1.271,2.488c1.662,3.199,2.486,6.705,3.51,10.132c0.495,1.657,1.398,2.466,2.896,1.216
	c4.242-3.54,8.302-7.213,8.305-13.434c0.002-2.865,0.182-5.736,0.405-8.594c0.653-8.331-1.867-15.395-8.209-20.974
	c1.819-0.702,2.81,0.672,3.778,1.689c4.244,4.452,6.338,9.855,6.269,15.96c-0.171,14.958-2.999,29.48-7.896,43.572
	c-4.744,13.648-9.781,27.195-14.646,40.802c-0.297,0.831-1.363,1.942-0.149,2.656c1.043,0.614,2.418,0.715,3.463-0.307
	c0.801-0.784,1.582-1.602,2.269-2.487c8.671-11.207,15.479-23.502,21.557-36.271c2.978-6.255,4.177-11.933-1.899-16.999
	c-0.094-0.077-0.142-0.206-0.223-0.301c-1.355-1.577-1.135-2.735,0.662-3.927c3.221-2.136,6.231-4.587,9.461-6.706
	c2.246-1.474,2.754-3.457,2.299-5.821c-2.194-11.388-5.941-22.223-12.996-31.533c-4.631-6.114-11.402-8.156-18.93-7.819
	c-0.889,0.039-2.043,0.211-2.203,1.06c-0.131,0.684,0.574,1.563,0.993,2.309c1.024,1.822,3.078,0.611,4.396,1.429
	c1.31,0.812,3.928-0.143,3.785,2.695C125.662,130.215,125.139,130.037,124.613,129.86z M111.521,259.497
	c-2.811-0.55-5.718-0.812-8.403-1.728c-3.042-1.037-3.784-0.324-3.792,2.821c-0.033,13.353-0.729,26.679-1.98,39.976
	c-0.831,8.824,0.576,10.58,8.92,11.918c2.847,0.456,4.226-0.491,4.351-3.338c0.257-5.854,0.518-11.707,0.775-17.56
	c0.073-0.225,0.078-0.452,0.017-0.68c0.003-7.281,1.159-14.523,0.737-21.819c0.07-0.226,0.076-0.453,0.015-0.682
	c0.001-2.274,0.001-4.549,0.002-6.822C112.139,260.83,112.604,259.927,111.521,259.497z M98.049,155.595
	c-6.757-4.67-5.417-6.554-9.333,2.873c-2.724,6.557-1.921,11.914,4.143,16.062c-0.193,0.146-0.379,0.303-0.56,0.465
	c-1.457-0.873-2.913-1.746-4.604-2.76c-1.813,6.788-3.69,13.348-5.305,19.973c-1.908,7.83-1.812,7.87,6.149,9.464
	c0.793,0.159,1.553,0.961,2.516,0.244c-1.644-5.304-4.197-10.383-4.444-16.077c-0.14-3.219,0.159-3.676,3.519-5.388
	c-3.026,3.755-1.941,7.295-0.81,10.651c1.762,5.225,2.522,10.986,7.271,14.798c0.59,0.474,0.908,1.52,1.004,2.341
	c0.944,8.102,5.319,14.652,9.58,21.235c1.105,1.707,1.998,3.708,4.566,4.544c-7.988-19.593-11.085-40.146-13.076-60.927
	c0.055-0.229,0.052-0.458-0.009-0.685c0.002-0.522,0.004-1.043,0.006-1.565c0.062-0.229,0.057-0.457-0.016-0.682
	c0-1.024,0-2.049,0-3.074c0.073-0.226,0.079-0.453,0.017-0.681c0.031-3.26,0.062-6.521,0.093-9.78
	C98.519,156.283,98.283,155.939,98.049,155.595z M124.914,415.406c0.546-10.592,0.922-21.195,1.689-31.771
	c0.657-9.069,1.779-18.105,2.668-27.16c1.106-11.287,3.002-22.465,4.826-33.646c0.436-2.67-0.242-3.242-2.892-3.588
	c-7.237-0.944-14.61-1.301-21.341-4.853c-3.676-1.938-6.431-0.161-7.157,3.944c-0.13,0.734-0.157,1.487-0.234,2.23
	c-1.188,11.404-2.556,22.793-3.511,34.217c-0.789,9.438-1.092,18.92-1.61,28.382c-0.071,0.226-0.075,0.453-0.013,0.681
	c-0.054,1.495-0.105,2.989-0.163,4.483c-0.622,16.062-0.665,32.111,0.727,48.146c0.174,2.01,0.442,3.656,2.635,4.404
	c7.848,2.675,15.734,3.467,23.734,0.688c0.455-0.015,0.729-0.223,0.75-0.701c-0.037-2.51-0.074-5.02-0.11-7.527
	c-0.015-0.716-0.029-1.432-0.044-2.147c0.011-5.031,0.021-10.063,0.031-15.098C124.971,415.863,124.977,415.636,124.914,415.406z
	 M151.148,205.34c0.062-0.226,0.057-0.45-0.019-0.672c-0.017-6.929-1.507-13.721-2.14-20.643c0.689,0.418,1.085,0.899,1.203,1.44
	c2.115,9.745,3.337,19.596,2.869,29.577c-0.228,4.825-1.922,9.912-1.324,14.346c0.748,5.576-2.827,4.985-5.379,5.933
	c-2.988,1.109-6.226,1.556-9.354,2.29c-0.248,0.016-0.496,0.031-0.742,0.047c-5.761,0.002-11.52,0.005-17.279,0.008
	c-0.461-0.012-0.697,0.186-0.627,0.671c3.678,7.001,2.914,13.61-2.14,19.935c13.791,1.531,27.136,1.08,40.509-0.687
	c8.477-1.119,12.905-6.238,15.406-13.761c0.588-1.771,1.133-3.558,1.606-5.362c3.878-14.753,3.698-29.609,0.749-44.451
	c-3.238-16.293-7.581-32.259-16.254-46.653c-4.059-6.733-9.154-12.533-16.465-16.248c-0.403,1.378,0.354,2.021,0.758,2.708
	c3.873,6.595,6.671,13.63,8.705,20.982c2.978,10.759,2.408,12.308-6.729,18.471c-5.41,3.648-5.536,3.758-1.138,8.836
	c2.317,2.677,2.933,5.165,1.368,8.404c-1.838,3.807-3.26,7.814-5.069,11.637c-5.195,10.974-11.744,21.116-19.05,30.799
	c-0.428,0.566-3.471,2.617,0.006,2.882c8.457,0.645,16.945,0.655,25.247-1.711c1.911-0.546,2.877-1.65,3.409-3.519
	c1.31-4.59,1.775-9.271,1.853-14.013c0.075-0.223,0.081-0.448,0.019-0.674C151.148,212.387,151.148,208.863,151.148,205.34z
	 M142.295,320.865c-1.186,8.729-0.695,17.551-1.404,26.308c-0.091,0.218-0.104,0.439-0.039,0.666
	c-0.278,9.345-0.608,18.688-0.824,28.034c-0.319,13.975,0.103,27.948,0.844,41.895c0.527,9.933,1.158,19.885,2.713,29.742
	c0.238,1.511,0.643,2.601,2.133,3.129c8.522,3.03,17.159,3.965,26.024,1.587c1.536-0.413,1.987-1.123,1.776-2.653
	c-1.776-12.848-2.543-25.771-2.856-38.729c0.062-0.229,0.057-0.455-0.015-0.681c-0.01-5.028-0.019-10.056-0.026-15.083
	c0.075-0.22,0.081-0.44,0.017-0.664c0.006-0.529,0.012-1.059,0.019-1.588c0.002-0.969,0.004-1.938,0.007-2.906
	c0.352-14.086,0.895-28.159,2.207-42.197c0.847-9.051,1.547-18.116,2.292-27.178c0.114-1.384,0.452-2.622-2.003-2.23
	c-8.75,1.392-17.584,1.958-26.451,1.897C145.234,320.428,143.581,319.402,142.295,320.865z M183.409,296.158
	c0.001-9.774,0.002-19.549,0.003-29.324c-0.016-0.714-0.032-1.428-0.049-2.143c-0.426-13.5-1.617-26.917-4.01-40.785
	c-1.51,1.452-1.658,2.804-1.795,4.09c-0.74,6.987-2.593,13.678-5.432,20.081c-2.212,4.989-5.585,9.032-11.127,10.241
	c-4.23,0.925-8.564,1.449-12.917,1.849c-9.474,0.868-18.919,0.676-28.381,0.095c-0.22-0.09-0.44-0.104-0.668-0.039
	c-1.498-0.061-2.995-0.121-4.492-0.184c-0.538,0.004-0.712,0.33-0.718,0.807c0.006,2.521,0.012,5.041,0.019,7.562
	c-0.062,0.227-0.061,0.453,0.009,0.68c-0.562,13.473-0.931,26.955-1.804,40.406c-0.256,3.955,1.209,5.33,4.628,5.996
	c15.674,3.05,31.494,3.131,47.332,2.202c5.2-0.306,10.368-1.374,15.514-2.299c1.434-0.257,3.354-0.458,3.258-2.847
	c-0.211-5.249,1.068-10.443,0.619-15.708C183.468,296.613,183.471,296.387,183.409,296.158z M87.044,233.122
	c-2.971-1.592-5.458-3.148-8.351-2.938c-3.028,0.22-5.956,0.674-9.08,0.264c-1.879-0.246-5.381-0.198-5.157,3.262
	c0.201,3.101,2.677,3.854,5.521,3.449c2.623-0.373,5.217,0.07,7.83,0.261c5.67,0.413,9.491,3.101,11.539,8.441
	c0.796,2.076,1.873,4.044,3.336,5.781c2.01,2.385,4.305,3.092,7.292,1.862c3.928-1.617,7.009-8.594,4.667-13.144
	c-4.944-9.608-6.889-19.878-8.208-30.386c-0.382-3.046-2.066-5.007-5.023-5.763c-5.348-1.368-10.61-3.48-16.323-1.93
	c-0.815,0.221-1.988-0.794-2.459,0.625c-0.474,1.425,0.396,2.378,1.396,3.185c1.913,1.544,4.22,1.965,6.577,2.352
	c6.38,1.046,8.18,3.136,8.517,9.563c0.044,0.83,0.239,1.652,0.462,3.126c-3.553-3.35-6.921-5.528-11.067-6.416
	c-4.187-0.896-8.249,0.869-12.448,0.319c-1.467-0.191-2.547,1.561-2.515,3.2c0.032,1.61,1.142,2.32,2.74,2.407
	c2.364,0.129,4.722,0.369,7.084,0.536c7.633,0.54,11.164,2.544,12.266,7.448C85.948,229.992,86.358,231.35,87.044,233.122z
	 M52.45,238.4c2.595-1.072,5.387-0.536,7.943-1.44c1.69-0.598,2.205-1.804,2.328-3.428c0.097-1.282-0.208-2.247-1.571-2.519
	c-4.47-0.893-8.956-1.061-13.208,0.802c-4.041,1.769-5.146,4.792-3.216,8.898c2.995,6.373,8.074,10.718,14.518,13.266
	c6.621,2.616,10.324-0.181,10.333-7.364c0.002-1.609-0.599-3.281,1.531-4.408c1.325-0.701,0.607-3.106-0.275-2.938
	c-3.606,0.694-6.472-3.444-10.461-0.99C58.263,239.575,55.149,239.316,52.45,238.4z M112.725,230.168
	c2.562-10.217,9.168-19.081,4.946-30.221c-2.241-5.915-1.653-12.562-2.046-18.909c-0.055-0.895,0.441-2.351-1.385-2.499
	c-1.596-0.13-2.225,0.784-2.662,2.038c-0.247,0.706-0.506,1.412-0.676,2.138c-2.519,10.752-3.596,21.668-3.048,32.678
	C108.108,220.488,109.959,225.284,112.725,230.168z M120.73,171.153c-3.279,5.45-4.293,11.219-3.311,17.577
	c0.932,6.019,1.385,12.102,3.393,18.586c4.979-12.159,9.029-23.816,11.174-36.794C123.357,177.255,123.036,177.257,120.73,171.153z
	 M50.693,222.962c3-0.387,6.01-0.715,8.998-1.182c1.771-0.276,2.773-1.005,2.433-3.267c-0.294-1.949-0.438-3.185-2.823-3.462
	c-2.075-0.241-3.811,1.35-5.792,0.719c-3.862-1.229-6.48,0.771-8.572,3.491c-1.762,2.291-1.35,4.974-0.025,7.401
	c1.203,2.205,2.792,3.478,5.708,2.811c2.761-0.632,5.751-1.252,8.526-0.282c4.401,1.539,8.516-0.528,12.773-0.634
	c2.25-0.056,1.877-2.212,2.112-3.736c0.212-1.377-0.316-2.094-1.773-2.203c-1.605-0.121-2.923-0.034-3.396,1.92
	c-0.263,1.09-0.857,2.101-1.415,3.412c-0.76-0.917-1.41-1.412-1.666-2.06c-1.128-2.865-2.657-3.736-5.925-2.689
	C57.033,224.103,53.827,224.609,50.693,222.962z M100.938,255.443c3.681,1.562,7.312,1.779,10.851,2.43
	c2.041,0.376,3.287-0.758,4.441-2.118c3.5-4.117,3.74-12.812,0.539-17.232c-0.525-0.726-0.981-1.429-1.957-1.551
	c-3.129-0.393-6.256-0.793-9.504-1.206C107.912,246.293,106.884,250.998,100.938,255.443z M57.607,208.539
	c3.696-0.312,7.398-0.571,11.084-0.972c1.086-0.118,3.089,0.172,2.828-1.36c-0.215-1.265-0.062-3.382-2.231-3.848
	c-5.702-1.226-11.316-1.41-16.608,1.509c-2.811,1.551-2.761,4.025-2.058,6.81c0.719,2.849,2.505,3.209,4.992,2.881
	c1.547-0.205,3.144-0.038,4.852-0.038C60.208,211.32,59.647,209.659,57.607,208.539z M112.364,161.474
	c-2.765-1.089-3.234,0.193-3.761,1.549c-1.634,4.201-0.292,8.089,1.417,11.816c1.193,2.604,5.592,3.188,6.885,0.86
	c2.057-3.704,3.057-7.596,1.381-12.046C116.799,159.706,113.582,162.26,112.364,161.474z M163.184,462.308
	c1.658-0.253,3.972-0.276,6.041-0.997c3.026-1.055,1.366-3.847,1.396-5.793c0.034-2.208-1.805-0.842-2.778-0.729
	c-4.483,0.523-8.928,0.561-13.394-0.279c-4.465-0.839-4.676-0.412-3.443,3.998c0.449,1.608,1.369,2.157,2.727,2.592
	C156.628,462.029,159.65,461.843,163.184,462.308z M67.317,256.257c2.882,0.822,5.513,1.816,7.984-0.376
	c3.453-3.064,5.093-11.38,3.252-15.694c-0.847-1.987-2.52-1.121-3.783-1.315c-1.502-0.231-1.196,1.149-1.179,2.116
	C73.695,246.882,71.142,251.696,67.317,256.257z M122.492,444.064c-5.395,1.066-10.809,1.235-16.18-0.039
	c-2.229-0.529-2.879,0.125-2.716,2.344c0.111,1.521,0.273,2.474,2.057,2.93c4.265,1.09,8.51,1.785,12.9,0.989
	C123.318,449.426,123.381,449.335,122.492,444.064z M60.526,210.188c2.298,0.918,0.648,4.532,3.461,3.701
	c3.875-1.144,7.657-1.953,11.634-1.311c1.548,0.251,1.552-0.781,1.905-1.637c0.47-1.141-0.167-1.575-1.157-1.793
	c-1.066-0.234-1.982-0.964-3.185-0.78C69.284,208.963,65.374,209.496,60.526,210.188z M100.268,221.14
	c0.267,3.615,1.402,6.323,1.961,9.146c0.702,3.543,2.915,4.377,6.412,4.121C105.861,230.002,103.255,225.873,100.268,221.14z
	 M87.336,216.736c-0.179-3.799-2.287-6.063-5.887-6.664c-0.807-0.135-1.837-0.53-2.123,0.697c-0.251,1.077-0.436,2.44,1.07,2.696
	C82.912,213.896,84.791,215.585,87.336,216.736z M78.019,223.667c0.465,3.766,2.03,5.929,6.023,5.531
	C83.273,226.028,81.754,223.861,78.019,223.667z"/>
<path fill="#008E8B" d="M170.652,392.828c-0.938-0.971-0.926-1.94,0.008-2.906C170.657,390.891,170.655,391.859,170.652,392.828z"/>
<path fill="#008E8B" d="M124.9,416.09c-0.086-0.165-0.188-0.325-0.244-0.5c-0.01-0.03,0.167-0.121,0.258-0.184
	C124.977,415.636,124.971,415.863,124.9,416.09z"/>
<path fill="#008E8B" d="M170.66,410.844c-0.092-0.161-0.198-0.316-0.264-0.487c-0.011-0.029,0.162-0.128,0.248-0.192
	C170.717,410.389,170.723,410.615,170.66,410.844z"/>
<path fill="#008E8B" d="M170.619,395.08c-0.079-0.16-0.176-0.315-0.225-0.484c-0.01-0.033,0.155-0.118,0.24-0.18
	C170.7,394.64,170.695,394.86,170.619,395.08z"/>
<path fill="#008E8B" d="M97.353,383.161c0.085,0.164,0.186,0.323,0.242,0.498c0.01,0.03-0.166,0.12-0.255,0.183
	C97.278,383.614,97.282,383.387,97.353,383.161z"/>
<path fill="#008E8B" d="M140.891,347.173c0.074,0.163,0.166,0.322,0.209,0.493c0.008,0.034-0.162,0.113-0.248,0.173
	C140.787,347.612,140.8,347.391,140.891,347.173z"/>
<path fill="#008E8B" d="M98.664,173.094c-0.091-0.164-0.197-0.322-0.26-0.495c-0.01-0.03,0.163-0.126,0.25-0.19
	C98.716,172.637,98.719,172.865,98.664,173.094z"/>
<path fill="#008E8B" d="M98.66,170.844c-0.093-0.161-0.199-0.317-0.263-0.489c-0.011-0.029,0.16-0.126,0.247-0.193
	C98.717,170.388,98.723,170.616,98.66,170.844z"/>
<path fill="#008E8B" d="M183.398,296.84c-0.086-0.165-0.188-0.324-0.244-0.497c-0.01-0.03,0.164-0.122,0.255-0.185
	C183.471,296.387,183.468,296.613,183.398,296.84z"/>
<path fill="#008E8B" d="M111.395,291.588c-0.084-0.164-0.185-0.324-0.24-0.498c-0.01-0.031,0.166-0.119,0.256-0.183
	C111.473,291.136,111.467,291.363,111.395,291.588z"/>
<path fill="#008E8B" d="M113.844,268.408c0.09,0.162,0.195,0.318,0.258,0.49c0.01,0.029-0.162,0.125-0.25,0.188
	C113.783,268.861,113.781,268.635,113.844,268.408z"/>
<path fill="#008E8B" d="M112.146,269.089c-0.086-0.165-0.187-0.325-0.242-0.499c-0.01-0.029,0.166-0.12,0.257-0.183
	C112.223,268.636,112.218,268.863,112.146,269.089z"/>
<path fill="#008E8B" d="M119.703,260.262c-0.244,0.365-0.467,0.338-0.668-0.039C119.262,260.158,119.484,260.172,119.703,260.262z"
	/>
<path fill="#008E8B" d="M114.543,260.039c-0.238,0.27-0.479,0.538-0.718,0.807C113.831,260.369,114.005,260.043,114.543,260.039z"/>
<path fill="#008E8B" d="M98.644,167.088c-0.084-0.165-0.184-0.325-0.238-0.499c-0.01-0.031,0.165-0.12,0.255-0.183
	C98.722,166.636,98.717,166.863,98.644,167.088z"/>
<path fill="#017C7A" d="M77.925,256.555c-0.186,0.082-0.371,0.164-0.557,0.246c0.105-0.16,0.21-0.322,0.315-0.484L77.925,256.555z"
	/>
<path fill="#008E8B" d="M98.753,156.627c-0.235-0.343-0.47-0.686-0.705-1.03C98.283,155.939,98.519,156.283,98.753,156.627z"/>
<path fill="#F8F8F8" d="M124.191,130.432c-0.238-0.164-0.478-0.327-0.715-0.49c0.344-0.497,0.744-0.239,1.137-0.081
	C124.489,130.063,124.35,130.253,124.191,130.432z"/>
<path fill="#008E8B" d="M137.007,237.61c-0.224,0.408-0.468,0.485-0.743,0.046C136.511,237.641,136.759,237.626,137.007,237.61z"/>
<path fill="#008E8B" d="M118.984,237.665c-0.209,0.225-0.418,0.448-0.627,0.671C118.287,237.851,118.523,237.653,118.984,237.665z"
	/>
<path fill="#AFB4B7" d="M107.74,36.697c4.593-2.608,9.314-4.704,14.807-4.297c1.706,0.127,3.069,0.546,4.229,1.92
	c6.598,7.812,9.985,16.547,8.004,26.897c-0.178,0.923,0.238,2.163-1.096,2.491c-1.397,0.344-1.482-1.035-1.99-1.774
	c-4.555-6.622-10.409-11.329-18.539-12.74c-0.245-0.043-0.514-0.205-0.728-0.146c-4.789,1.302-5.692-1.681-7.343-5.372
	c-1.822-4.072,1.461-4.872,2.706-7.032C107.791,36.644,107.74,36.697,107.74,36.697z"/>
<path fill="#B0B5B8" d="M128.064,78.738c-1.121-0.596-2.332-0.715-2.938-2.366c-1.7-4.632-5.316-7.119-10.223-7.404
	c-1.621-0.094-2.506-0.724-3.209-2.016c-0.922-1.694-2.316-3.121-4.022-3.774c-3.399-1.303-3.982-3.251-2.15-6.212
	c0.193-0.312,0.305-0.682,0.419-1.036c2.111-6.516,2.339-6.827,8.971-5.043c8.332,2.241,14.045,7.848,17.509,15.552
	c1.602,3.561-1.904,6.062-3.12,9.037c-0.432,1.059-2.36,1.57-1.194,3.22L128.064,78.738z"/>
<path fill="#B0B5B8" d="M97.951,68.874c1.928-0.708,2.758-2.569,3.538-4.102c1.52-2.986,3.238-2.391,5.262-0.899
	c0.798,0.588,1.512,1.301,2.21,2.011c1.771,1.799,3.591,3.507-0.049,5.425c-1.107,0.584-1.821,2.006-2.583,3.134
	c-0.931,1.377-1.354,3.464-4.005,2.379c2.113,3.458,4.413,6.819,6.29,10.4c2.323,4.436,0.748,7.823-3.946,9.383
	c-1.706,0.566-2.645,0.257-3.382-1.605c-1.963-4.958-3.998-9.908-6.381-14.673c-1.816-3.631-2-6.54,1.647-9.041
	c0.762-0.523,1.579-1.282,1.441-2.461L97.951,68.874z"/>
<path fill="#B0B5B8" d="M100.245,37.396c0.892-2.063-1.044-2.902-2.049-3.533c-3.595-2.262-3.463-4.751-1.099-7.707l0.11,0.061
	c5.872-5.894,12.097-3.185,18.234-0.648c2.639,1.09,4.961,2.779,7.623,5.34c-4.688,0.313-8.857,0.758-12.496,2.847
	c-1.125,0.646-3.248,0.685-2.828,2.943c0,0,0.051-0.053,0.05-0.053c-0.203-0.249-0.305-0.662-0.786-0.419
	c-4.031,2.034-4.031,2.032-6.786,1.146L100.245,37.396z"/>
<path fill="#AFB4B7" d="M97.207,26.216l-0.11-0.061c-4.005,4.735-7.405,1.079-10.931-0.793c-0.544-0.29-1.077-0.602-2.556-1.432
	c6.059-1.029,11.129-2.792,16.682-2.03C99.609,23.762,96.728,23.76,97.207,26.216z"/>
<path fill="#F8F8F8" d="M75.493,91.214c0.023,7.885-9.675,15.011-17.995,13.454c-4.424-0.829-8.241-2.639-10.552-6.794
	c-0.922-1.658-1.095-2.608,1.382-2.799c3.585-0.276,7.161-0.84,10.698-1.507c2.057-0.388,3.641-1.237,5.409,1.229
	c1.253,1.748,3.109,0.447,3.646-1.677c0.36-1.425,5.297-5.048,6.487-4.599C76.002,89.062,75.236,90.47,75.493,91.214z"/>
<path fill="#F8F8F8" d="M29.139,103.956c-5.232-0.128-9.489-4.651-9.13-9.714c0.181-2.552,0.848-4.219,3.787-2.245
	c1.426,0.958,3.359,0.99,3.844,3.388c0.313,1.551,2.114,1.677,3.263,0.391c1.394-1.562,3.317-1.309,4.386-0.492
	c1.44,1.102-0.112,2.71-0.668,3.946C32.98,102.875,31.532,104.015,29.139,103.956z"/>
<path fill="#F4DA02" d="M30.271,105.436c0.037,1.316-0.991,1.805-1.539,2.555c-1.713,2.346-2.969,2.167-4.454-0.383
	c-0.54-0.929-0.91-1.963-0.47-2.805c0.681-1.303,1.659,0.104,2.534,0.1C27.654,104.895,28.968,105.241,30.271,105.436z"/>
<path fill="#F1F1F1" d="M93.582,123.026c1.727,0.656,2.205-1.076,3.189-1.758c0.801-0.556,1.575-0.99,2.326-0.386
	c0.934,0.752,0.271,1.671-0.323,2.245c-1.586,1.531-4.501,1.863-4.338,4.992c0.011,0.221-1.021,0.621-1.606,0.724
	c-1.575,0.28-4.133-0.769-3.228,2.59c0.022,0.084-0.102,0.295-0.167,0.3c-4.376,0.277-6.791,5.346-11.563,4.711
	c-1.153-0.153-2.506-0.924-2.704,1.557c-0.178,2.238-2.326,2.552-4.395,2.23c-1.775-0.276-3.427-0.786-4.436,1.787
	c-0.813,2.077-3.143,2.243-5.216,1.597c-1.623-0.506-2.648-1.052-4.192,0.948c-1.638,2.121-4.52,0.874-6.856-0.192
	c0.778-1.099,1.956-1.021,3.007-1.322c13.487-3.856,26.425-8.952,37.998-17.065c1.082-0.759,2.671-1.189,2.554-3.007
	C93.633,122.977,93.582,123.026,93.582,123.026z"/>
<path fill="#F4DA02" d="M86.652,47.238c-0.088,1.208-0.566,2.085-1.955,2.143c-1.423,0.059-2.398-0.419-2.439-2.035
	c-0.035-1.391,0.337-2.48,1.979-2.482C85.757,44.862,86.328,45.916,86.652,47.238z"/>
<path fill="#0A0B09" d="M92.858,174.53c3.172,3.521-1.549,3.292-2.043,5.073c-0.793-2.07,2.074-2.654,1.486-4.611
	C92.479,174.833,92.665,174.678,92.858,174.53z"/>
<rect x="42.375" y="165.334" fill="#FFFFFF" stroke="#000000" stroke-miterlimit="10" width="148.959" height="102"/>
<path fill="#F4DA02" stroke="#000000" stroke-miterlimit="10" d="M184.213,224.039c-0.686-1.772-1.096-3.13-1.402-4.495
	c-1.103-4.904-4.633-6.908-12.267-7.448c-2.362-0.167-4.72-0.407-7.085-0.536c-1.598-0.086-2.707-0.797-2.739-2.406
	c-0.032-1.639,1.048-3.392,2.515-3.2c4.199,0.55,8.263-1.216,12.449-0.319c4.146,0.888,7.515,3.066,11.066,6.416
	c-0.223-1.475-0.418-2.297-0.463-3.127c-0.336-6.427-2.137-8.517-8.516-9.562c-2.357-0.387-4.664-0.808-6.578-2.352
	c-0.998-0.807-1.869-1.76-1.396-3.185c0.472-1.419,1.644-0.403,2.459-0.624c5.712-1.551,10.976,0.562,16.322,1.93
	c2.957,0.756,4.642,2.717,5.022,5.764c1.318,10.508,3.265,20.777,8.207,30.386c2.342,4.55-0.738,11.526-4.668,13.144
	c-2.985,1.23-5.281,0.523-7.291-1.862c-1.463-1.737-2.541-3.705-3.336-5.781c-2.049-5.341-5.869-8.028-11.539-8.441
	c-2.613-0.19-5.207-0.634-7.83-0.261c-2.844,0.404-5.319-0.349-5.521-3.449c-0.224-3.46,3.276-3.508,5.157-3.262
	c3.124,0.41,6.052-0.045,9.078-0.265C178.754,220.891,181.242,222.446,184.213,224.039z"/>
<path fill="#F4DA02" stroke="#000000" stroke-miterlimit="10" d="M53.373,193.026c-5.702-1.226-11.316-1.41-16.608,1.509
	c-2.811,1.551-2.761,4.025-2.058,6.81c0.719,2.849,2.505,3.209,4.992,2.881c0.292-0.039,0.589-0.054,0.886-0.07V199h3.624
	c2.858-0.23,5.717-0.457,8.567-0.766c1.086-0.118,3.089,0.172,2.828-1.36C55.388,195.609,55.542,193.492,53.373,193.026z"/>
<path fill="#F4DA02" stroke="#000000" stroke-miterlimit="10" d="M40.835,207h5.656c1.542-0.193,3.083-0.396,4.618-0.636
	c1.771-0.276,2.773-1.005,2.433-3.267c-0.294-1.949-0.438-3.185-2.823-3.462c-2.075-0.241-3.811,1.35-5.792,0.719
	c-3.862-1.229-6.48,0.771-8.572,3.491c-1.762,2.291-1.35,4.974-0.025,7.401c1.025,1.878,2.338,3.068,4.505,2.97V207z"/>
<path fill="#F4DA02" stroke="#000000" stroke-miterlimit="10" d="M50.4,208.597c-4.47-0.893-8.956-1.061-13.208,0.802
	c-4.041,1.769-5.146,4.792-3.216,8.898c1.928,4.103,4.729,7.353,8.192,9.836v-11.3h0.458v-0.577
	c-0.311-0.084-0.622-0.17-0.925-0.273c2.595-1.072,5.387-0.536,7.943-1.44c1.69-0.598,2.205-1.804,2.328-3.428
	C52.068,209.834,51.764,208.869,50.4,208.597z"/>
<text transform="matrix(1 0 0 1 64.7163 211.0112)" enable-background="new    "><tspan x="0" y="0" fill="#4FBF8C" font-family="'Quicksand-Bold'" font-size="23">Account</tspan><tspan x="0" y="27.6" fill="#4FBF8C" font-family="'Quicksand-Bold'" font-size="23">Setup-&gt;</tspan></text>
<text transform="matrix(1 0 0 1 74.7637 183.2852)" font-family="'Quicksand-Bold'" font-size="16">Excellent...</text>
<text transform="matrix(1 0 0 1 92.0439 254.3301)" font-family="'Quicksand-Bold'" font-size="10">(click me)</text>
</svg>
