<?xml version="1.0" encoding="utf-8"?>
<!-- Generator: Adobe Illustrator 16.0.0, SVG Export Plug-In . SVG Version: 6.00 Build 0)  -->
<!DOCTYPE svg PUBLIC "-//W3C//DTD SVG 1.1//EN" "http://www.w3.org/Graphics/SVG/1.1/DTD/svg11.dtd">
<svg version="1.1" id="Layer_1" xmlns="http://www.w3.org/2000/svg" xmlns:xlink="http://www.w3.org/1999/xlink" x="0px" y="0px"
	 width="217px" height="270px" viewBox="0 0 217 270" enable-background="new 0 0 217 270" xml:space="preserve">
<path fill-rule="evenodd" clip-rule="evenodd" fill="#F6DB07" d="M22.521,30.205c0.011-0.194,0.114-0.296,0.308-0.307
	c1.939,1.458,2.576-0.761,3.427-1.471C40.29,16.725,56.338,14.106,73.823,17.511c9.717,1.892,17.471,7.165,24.422,13.885
	l-0.026-0.025c0.029,1.663,1.431,2.554,2.223,3.754c3.265,4.954,3.759,10.081,1.575,15.577c-1.336,3.363-3.262,6.372-5.144,9.425
	c-0.502,0.814-1.763,1.456-0.922,2.748l0.042-0.049c-5.126,2.026-7.068,5.756-5.162,10.355c2.374,5.729,4.97,11.366,7.364,17.087
	c0.486,1.162,1.062,2.055,2.302,2.105c3.42,0.14,5.79-1.924,8.03-4.12c1.795-1.759,1.397-3.701,0.508-5.806
	c-1.022-2.417-2.249-4.702-3.756-6.827c-1.018-1.437-1.357-2.893-0.805-4.57c1.38-4.192,6.02-7.279,9.792-6.495
	c5.202,1.082,8.003,5.12,7.925,10.141c-0.042,2.716-1.588,4.664-2.128,7.051c0,0,0.059-0.061,0.059-0.06
	c-2.594,0.688-4.726,2.491-8.302,3.198c4.436,0.218,2.546,2.479,2.133,3.851c-1.106,3.671-2.512,7.251-3.792,10.868
	c-1.399,3.951-2.29,7.988-0.545,12.015c3.09,7.132,6.973,13.747,13.368,18.507c1.158,0.863,2.051,1.906,2.175,3.33
	c0.525,6.017-0.296,11.682-4.649,16.318c-4.213,4.487-7.589,5.27-13.418,3.137c-5.514-2.018-10.455-5.056-15.336-8.273
	c-2.765-1.822-4.622-4.805-7.878-5.932c0,0,0.046,0.043,0.046,0.042c-0.62-2.675-2.046-3.68-4.676-2.299
	c-1.313,0.689-2.646,0.497-3.975-0.018c-0.82-0.318-1.983-0.743-1.645-1.634c0.379-0.999,0.597-2.906,2.109-2.607
	c4.901,0.967,7.251-4.174,11.595-4.561c1.718-0.153,1.619-3.08,3.763-3.263c1.741-0.148,2.448-1.516,3.535-2.752
	c1.885-2.144,3.209-5.631,7.348-4.982c-2.304-3.489-5.625-3.775-9.172-3.491c-0.74,0.059-1.433,0.639-0.786,1.065
	c2.181,1.436-1.184,1.776-0.436,2.82l0.052-0.049c-0.449,0.134-0.987,0.15-1.332,0.417c-8.84,6.834-18.917,11.261-29.362,14.892
	c-7.74,2.69-15.592,5.114-23.939,4.833c-4.975-0.167-6.145-1.971-5.936-6.868c0.145-3.393,2.256-4.954,4.367-6.857
	c4.046-3.646,4.415-6.491,1.455-9.66c-0.313-0.197-0.626-0.393-0.939-0.59c-4.155-1.374-8.299,0.153-9.828,3.85
	c2.043-2.379,5.038-2.322,7.66-3.221c0.782,0.195,1.564,0.39,2.346,0.584c1.922,3.164,1.333,5.686-2.276,8.341
	c-4.491,3.304-8.752,6.861-12.675,10.814c-0.52,0.523-1.939,0.908-0.859,2.154l-0.025,0.024c-2.809-0.444-3.524,2.347-5.312,3.484
	c-0.95,0.604-1.821,1.562-2.97,1.157c-1.372-0.483-1.503-1.843-1.488-3.137c0.028-2.365-0.111-4.709,0.404-7.081
	c1.729-7.956,6.575-14.105,11.454-20.251c4.556-5.739,9.701-11.063,12.529-18.006c0.471-1.157,0.345-3.062,2.438-2.555
	c2.062,0.5,4.557-0.828,5.979,2.334c2.73,6.069,9.311,9.432,15.873,8.739c7.874-0.831,15.085-7.088,15.788-13.74
	c0.299-2.833-1.509-6.27,3.574-7.82c-2.602-0.581-3.505,0.473-4.578,0.991c-14.925,7.217-30.467,9.898-46.833,6.312
	c-6.193-1.357-10.619-5.004-12.45-11.117C10.238,60.117,11.018,45.99,21.3,33.368C21.94,32.582,23.976,31.944,22.521,30.205z
	 M95.202,49.497c-0.171-1.816-1.39-2.841-3.113-3.059c-1.806-0.229-2.324,1.226-2.459,2.646c-0.164,1.708,0.607,2.976,2.437,3.099
	C93.808,52.299,94.82,51.278,95.202,49.497z M113.618,71.371c1.51-0.151,2.591-0.259,4.185-0.419
	c-4.688-2.161-7.971-0.858-9.225,3.182c1.552,0.024,2.117-2.997,3.533-1.768c2.044,1.775,1.275,4.463,0.22,7.705
	C115.671,77.081,115.122,74.458,113.618,71.371z M86.158,41.05c-0.526-2.197-1.824-3.688-4.113-3.58
	c-2.19,0.103-3.284,1.76-3.246,3.811c0.044,2.39,1.717,3.631,3.927,3.518C84.825,44.692,85.924,43.145,86.158,41.05z M80.301,58.367
	c-0.028-0.688-0.489-1.954-2.026-1.872c-1.881,0.102-2.829,1.399-2.71,3.292c0.086,1.37,0.677,2.445,2.283,2.32
	C79.693,61.964,80.36,60.773,80.301,58.367z"/>
<path fill-rule="evenodd" clip-rule="evenodd" fill="#0D0E0D" stroke="#010101" stroke-miterlimit="10" d="M87.39,249.141
	c3.061-1.691,5.037-0.045,7.251,0.701c1.977,0.666,1.011,3.03,1.104,4.664c0.078,1.357-0.2,2.731-0.222,4.099
	c-0.009,0.551-0.023,1.103-0.036,1.653c0.591,0.059,1.181,0.116,1.772,0.172c0.033-1.945,0.063-3.892,0.068-5.838
	c0.008-3.146,0.75-3.859,3.792-2.821c2.685,0.916,5.593,1.177,8.403,1.727c1.082,0.43,0.617,1.333,0.642,2.088
	c-0.001,1.346-0.001,2.692-0.001,4.038c0.014-0.004,0.026-0.012,0.04-0.016c0.572-0.157,1.128-0.13,1.635,0.027
	c-0.004-1.597-0.008-3.192-0.012-4.789c0.006-0.477,0.18-0.803,0.718-0.807c1.497,0.062,2.994,0.123,4.492,0.184
	c0.227-0.064,0.449-0.051,0.668,0.039c9.462,0.581,18.908,0.773,28.381-0.095c4.352-0.398,8.686-0.924,12.917-1.848
	c5.542-1.21,8.915-5.252,11.127-10.242c2.839-6.402,4.691-13.093,5.431-20.081c0.137-1.286,0.286-2.638,1.796-4.09
	c2.31,13.392,3.493,26.363,3.955,39.393c0.598-0.217,1.267-0.248,1.896-0.107c-0.435-8.048-1.146-16.087-2.139-24.116
	c-1.207-9.772-3.698-19.37-4.64-29.12c-1.714-17.735-5.83-34.752-12.558-51.191c-4.051-9.897-9.306-18.883-18.032-25.568
	c-3.806-2.915-8.428-4.192-12.209-7.067c-5.527-4.203-11.845-5.644-18.673-4.514c-0.984,0.163-1.471,0.428-1.984-0.646
	c-1.29-2.696-3.381-5.55-2.543-8.397c2.44-8.295,2.525-17.636,9.769-23.991c0.374-0.328,0.175-0.615-0.076-0.894
	c-2.594,0.688-4.726,2.491-8.302,3.198c4.436,0.218,2.546,2.479,2.133,3.851c-1.106,3.671-2.512,7.251-3.792,10.868
	c-1.399,3.951-2.29,7.988-0.545,12.015c3.09,7.132,6.973,13.747,13.368,18.507c1.158,0.863,2.051,1.906,2.175,3.33
	c0.525,6.017-0.296,11.682-4.649,16.318c-4.213,4.487-7.589,5.27-13.418,3.137c-5.514-2.018-10.455-5.056-15.336-8.273
	c-2.765-1.822-4.622-4.805-7.878-5.932c-0.274,0.287-0.43,0.645-0.035,0.885c5.092,3.083,4.521,7.056,1.871,11.416
	c-0.378,0.623-0.654,1.395-0.702,2.116c-0.204,3.072-2.841,5.961-1.389,8.997c0.99,2.068,0.818,3.778,0.221,5.641
	c-2.508,7.815-4.577,15.735-5.986,23.825c-0.145,0.833-0.765,2.338-0.893,2.31c-3.414-0.759-6.58,1.69-9.901,0.838
	c-4.614-1.184-9.181-0.845-13.681,0.252c-6.206,1.513-7.933,4.588-6.053,10.734c0.505,1.65,0.364,2.144-1.219,2.979
	c-6.815,3.597-7.812,8.47-3.186,14.519c0.608,0.796,1.247,1.236,0.324,2.441c-4.024,5.249-4.004,6.627-0.625,12.209
	c4.624,7.636,11.716,11.295,20.142,13.448C71.361,253.514,79.656,253.414,87.39,249.141z M73.302,249.881
	c-2.472,2.192-5.103,1.198-7.984,0.376c3.824-4.561,6.378-9.375,6.275-15.27c-0.017-0.967-0.323-2.348,1.179-2.116
	c1.263,0.194,2.936-0.672,3.783,1.315C78.395,238.501,76.755,246.816,73.302,249.881z M86.71,247.997
	c-3.392,1.664-6.959,2.68-10.785,2.558l-0.557,0.246c0.105-0.161,0.21-0.322,0.315-0.483c2.825-4.24,3.58-8.932,3.115-13.918
	c-0.073-0.785-0.515-1.816,0.483-2.349c0.886-0.472,1.757,0.02,2.425,0.55c3.693,2.93,4.59,7.571,6.782,11.418
	C89.099,247.085,87.531,247.594,86.71,247.997z M109.789,251.873c-3.539-0.649-7.17-0.868-10.851-2.43
	c5.946-4.445,6.974-9.15,4.37-19.677c3.249,0.413,6.376,0.813,9.505,1.206c0.975,0.122,1.431,0.825,1.956,1.551
	c3.202,4.42,2.961,13.115-0.538,17.232C113.076,251.115,111.83,252.249,109.789,251.873z M100.229,224.286
	c-0.56-2.823-1.695-5.531-1.961-9.146c2.987,4.733,5.593,8.862,8.374,13.268C103.145,228.663,100.932,227.829,100.229,224.286z
	 M113.625,175.038c0.393,6.349-0.196,12.994,2.046,18.909c4.222,11.14-2.384,20.004-4.946,30.221
	c-2.766-4.884-4.616-9.68-4.87-14.775c-0.548-11.009,0.53-21.926,3.048-32.678c0.17-0.726,0.429-1.433,0.676-2.138
	c0.438-1.253,1.066-2.167,2.662-2.038C114.066,172.688,113.57,174.143,113.625,175.038z M118.731,165.153
	c2.305,6.104,2.627,6.102,11.256-0.631c-2.145,12.979-6.196,24.635-11.174,36.794c-2.009-6.484-2.462-12.567-3.393-18.586
	C114.438,176.372,115.451,170.604,118.731,165.153z M139.771,125.109c7.311,3.715,12.407,9.514,16.465,16.248
	c8.673,14.395,13.016,30.36,16.254,46.653c2.949,14.842,3.129,29.698-0.749,44.451c-0.475,1.804-1.019,3.592-1.606,5.362
	c-2.501,7.523-6.931,12.642-15.407,13.761c-13.373,1.766-26.717,2.218-40.508,0.686c5.053-6.323,5.816-12.933,2.139-19.934
	c-0.07-0.485,0.166-0.683,0.628-0.671c5.76-0.003,11.519-0.006,17.278-0.008c0.247-0.016,0.495-0.031,0.743-0.047
	c3.129-0.734,6.365-1.181,9.354-2.29c2.551-0.947,6.127-0.356,5.378-5.933c-0.597-4.435,1.098-9.521,1.324-14.346
	c0.468-9.981-0.753-19.832-2.869-29.577c-0.118-0.541-0.513-1.022-1.203-1.44c0.633,6.922,2.123,13.714,2.14,20.643
	c0.074,0.223,0.08,0.447,0.019,0.672v10.571c0.062,0.226,0.057,0.451-0.019,0.674c-0.076,4.741-0.543,9.422-1.853,14.013
	c-0.532,1.868-1.497,2.973-3.409,3.519c-8.302,2.366-16.79,2.355-25.247,1.711c-3.476-0.265-0.433-2.315-0.006-2.882
	c7.306-9.683,13.854-19.825,19.05-30.799c1.81-3.822,3.232-7.83,5.07-11.637c1.563-3.239,0.949-5.728-1.369-8.404
	c-4.398-5.078-4.272-5.188,1.138-8.836c9.137-6.163,9.706-7.712,6.729-18.471c-2.035-7.353-4.832-14.388-8.706-20.982
	C140.126,127.13,139.367,126.487,139.771,125.109z M118.562,153.556c9.601-7.015,11.197-19.913,3.629-29.124
	c-0.238-0.164-0.477-0.327-0.715-0.49c0.345-0.497,0.744-0.239,1.137-0.081c0.524,0.177,1.049,0.354,1.573,0.531
	c0.143-2.838-2.476-1.883-3.784-2.695c-1.318-0.818-3.372,0.394-4.396-1.429c-0.419-0.745-1.124-1.625-0.994-2.309
	c0.161-0.849,1.315-1.021,2.204-1.06c7.526-0.337,14.299,1.705,18.93,7.819c7.054,9.311,10.801,20.145,12.995,31.533
	c0.455,2.364-0.052,4.347-2.298,5.821c-3.229,2.118-6.241,4.57-9.461,6.706c-1.797,1.191-2.019,2.35-0.662,3.927
	c0.081,0.095,0.129,0.224,0.222,0.301c6.076,5.066,4.877,10.743,1.9,16.999c-6.077,12.769-12.886,25.064-21.557,36.271
	c-0.686,0.886-1.468,1.704-2.269,2.487c-1.044,1.021-2.42,0.921-3.463,0.307c-1.213-0.714-0.146-1.826,0.15-2.656
	c4.863-13.607,9.901-27.154,14.645-40.802c4.897-14.092,7.726-28.614,7.896-43.572c0.069-6.105-2.023-11.508-6.268-15.96
	c-0.97-1.018-1.96-2.391-3.779-1.689c6.342,5.58,8.862,12.643,8.209,20.974c-0.225,2.858-0.403,5.729-0.405,8.594
	c-0.003,6.221-4.062,9.894-8.305,13.434c-1.498,1.25-2.401,0.441-2.896-1.216c-1.022-3.427-1.848-6.933-3.51-10.132
	C116.479,154.481,117.683,154.198,118.562,153.556z M106.603,157.022c0.527-1.355,0.998-2.638,3.761-1.549
	c1.218,0.787,4.435-1.768,5.92,2.18c1.676,4.45,0.676,8.342-1.381,12.046c-1.292,2.327-5.69,1.744-6.884-0.86
	C106.311,165.111,104.969,161.223,106.603,157.022z M98.418,152.315c-0.015-0.213,0.136-0.614,0.257-0.634
	c2.261-0.371,3.735,1.617,5.782,1.96c0.979,0.165,1.56,0.745,1.102,1.864c-1.327,3.239-1.71,6.696-2.358,10.095
	c-0.251,1.319-0.886,1.993-2.081,0.925c0.018,0.015,0.031,0.031,0.049,0.046c0.004,0.588-0.224,0.709-0.543,0.654
	c-0.218,1.08,0.94,1.328,1.849,1.463c2.417,0.36,1.516-2.001,2.443-3.266c2.179,4.218,4.261,7.895,2.43,13.101
	c-2.638,7.509-2.824,15.575-3.408,23.532c-2.792-11.206-4.515-22.562-5.449-34.062c-0.187-2.297,1.3-0.913,2.135-0.769
	c0.047-0.233,0.156-0.504,0.349-0.823c0.052,0.051,0.096,0.079,0.146,0.123C96.407,162.527,98.759,157.159,98.418,152.315z
	 M80.39,186.209c1.615-6.625,3.492-13.186,5.305-19.973c1.691,1.014,3.147,1.887,4.604,2.76c0.18-0.163,0.367-0.318,0.56-0.465
	c-6.063-4.148-6.867-9.506-4.143-16.062c3.917-9.427,2.577-7.543,9.333-2.873c0.234,0.344,0.47,0.688,0.705,1.032
	c-0.031,3.26-0.062,6.521-0.093,9.78c0.062,0.229,0.057,0.456-0.017,0.681c0,1.025,0,2.049,0,3.074
	c0.073,0.226,0.079,0.454,0.016,0.682c-0.002,0.521-0.004,1.043-0.006,1.565c0.062,0.228,0.064,0.456,0.009,0.685
	c1.99,20.781,5.088,41.334,13.076,60.927c-2.568-0.836-3.461-2.837-4.566-4.544c-4.26-6.583-8.636-13.134-9.58-21.235
	c-0.096-0.821-0.414-1.867-1.004-2.341c-4.749-3.812-5.509-9.573-7.271-14.798c-1.132-3.356-2.217-6.896,0.81-10.651
	c-3.359,1.712-3.658,2.169-3.519,5.388c0.247,5.694,2.8,10.772,4.444,16.077c-0.962,0.718-1.722-0.085-2.516-0.244
	C78.577,194.079,78.482,194.039,80.39,186.209z M70.63,196.907c0.471-1.418,1.644-0.403,2.459-0.625
	c5.712-1.55,10.975,0.562,16.323,1.93c2.957,0.756,4.641,2.717,5.023,5.763c1.318,10.508,3.264,20.778,8.208,30.386
	c2.341,4.55-0.739,11.526-4.667,13.144c-2.986,1.23-5.282,0.523-7.292-1.862c-1.463-1.737-2.541-3.705-3.336-5.781
	c-2.048-5.341-5.869-8.028-11.539-8.441c-2.613-0.19-5.208-0.634-7.83-0.261c-2.844,0.405-5.32-0.349-5.521-3.449
	c-0.224-3.46,3.278-3.508,5.157-3.262c3.124,0.41,6.051-0.044,9.08-0.264c2.893-0.211,5.38,1.345,8.351,2.938
	c-0.686-1.772-1.096-3.13-1.402-4.495c-1.102-4.904-4.633-6.908-12.266-7.448c-2.362-0.167-4.72-0.407-7.084-0.536
	c-1.598-0.086-2.708-0.797-2.74-2.407c-0.032-1.639,1.048-3.392,2.515-3.2c4.199,0.55,8.261-1.216,12.448-0.319
	c4.146,0.888,7.514,3.066,11.067,6.416c-0.223-1.475-0.418-2.297-0.462-3.126c-0.336-6.427-2.137-8.517-8.517-9.563
	c-2.357-0.387-4.664-0.808-6.577-2.352C71.026,199.286,70.156,198.332,70.63,196.907z M76.019,217.667
	c3.735,0.194,5.254,2.361,6.023,5.531C78.049,223.596,76.484,221.433,76.019,217.667z M58.526,204.188
	c4.847-0.691,8.757-1.225,12.658-1.819c1.203-0.184,2.119,0.546,3.185,0.78c0.99,0.218,1.627,0.652,1.157,1.793
	c-0.353,0.855-0.357,1.888-1.905,1.637c-3.977-0.643-7.759,0.167-11.634,1.311C59.175,208.719,60.825,205.105,58.526,204.188z
	 M77.326,204.77c0.286-1.228,1.316-0.832,2.123-0.697c3.601,0.6,5.708,2.865,5.887,6.664c-2.545-1.151-4.424-2.841-6.94-3.271
	C76.891,207.21,77.075,205.847,77.326,204.77z M50.68,197.868c5.292-2.918,10.906-2.735,16.608-1.509
	c2.169,0.466,2.016,2.583,2.231,3.848c0.261,1.532-1.742,1.242-2.828,1.36c-3.686,0.4-7.388,0.659-11.084,0.972
	c2.04,1.12,2.601,2.781,2.859,4.982c-1.708,0-3.304-0.167-4.852,0.038c-2.487,0.328-4.273-0.033-4.992-2.881
	C47.919,201.893,47.87,199.419,50.68,197.868z M42.912,220.662c-1.325-2.427-1.737-5.11,0.025-7.401
	c2.092-2.72,4.71-4.72,8.572-3.491c1.98,0.631,3.717-0.959,5.792-0.719c2.385,0.278,2.529,1.514,2.823,3.462
	c0.341,2.262-0.662,2.991-2.433,3.267c-2.988,0.467-5.998,0.795-8.998,1.182c3.133,1.647,6.339,1.141,9.162,0.238
	c3.268-1.047,4.797-0.176,5.925,2.689c0.256,0.648,0.906,1.143,1.666,2.06c0.558-1.311,1.152-2.322,1.415-3.412
	c0.472-1.954,1.791-2.041,3.396-1.92c1.458,0.109,1.986,0.826,1.773,2.203c-0.235,1.524,0.139,3.68-2.112,3.736
	c-4.258,0.105-8.373,2.173-12.773,0.634c-2.775-0.97-5.766-0.35-8.526,0.282C45.704,224.14,44.115,222.867,42.912,220.662z
	 M57.243,247.979c-6.444-2.547-11.523-6.892-14.518-13.265c-1.93-4.107-0.824-7.13,3.216-8.898
	c4.252-1.862,8.739-1.694,13.208-0.802c1.363,0.271,1.668,1.237,1.571,2.519c-0.123,1.624-0.638,2.83-2.328,3.428
	c-2.556,0.904-5.348,0.368-7.943,1.44c2.699,0.917,5.812,1.175,7.92-0.122c3.99-2.454,6.855,1.685,10.461,0.99
	c0.882-0.169,1.6,2.237,0.275,2.938c-2.129,1.127-1.528,2.799-1.531,4.408C67.566,247.799,63.863,250.596,57.243,247.979z"/>
<path fill-rule="evenodd" clip-rule="evenodd" fill="#0D0E0D" d="M120.062,81.747c0.54-2.387,2.086-4.335,2.128-7.051
	c0.078-5.021-2.723-9.059-7.925-10.141c-3.771-0.784-8.412,2.302-9.792,6.495c-0.552,1.677-0.213,3.133,0.805,4.57
	c1.507,2.125,2.733,4.41,3.756,6.827c0.89,2.104,1.287,4.047-0.508,5.806c-2.241,2.196-4.61,4.26-8.03,4.12
	c-1.24-0.05-1.816-0.944-2.302-2.105c-2.394-5.721-4.99-11.357-7.364-17.087c-1.906-4.6,0.036-8.329,5.162-10.355
	c0.138,1.179-0.679,1.938-1.441,2.461c-3.648,2.501-3.464,5.41-1.647,9.041c2.383,4.765,4.418,9.715,6.381,14.673
	c0.737,1.862,1.676,2.172,3.382,1.605c4.694-1.561,6.271-4.948,3.946-9.383c-1.877-3.582-4.177-6.942-6.29-10.4
	c2.651,1.084,3.074-1.002,4.005-2.379c0.762-1.127,1.476-2.55,2.583-3.134c3.64-1.918,1.82-3.626,0.049-5.425
	c-0.698-0.71-1.412-1.422-2.21-2.011c-2.023-1.492-3.742-2.086-5.262,0.899c-0.779,1.532-1.609,3.394-3.538,4.102
	c-0.841-1.292,0.42-1.934,0.922-2.748c1.881-3.053,3.808-6.062,5.144-9.425c2.185-5.496,1.69-10.623-1.575-15.577
	c-0.792-1.2-2.194-2.091-2.223-3.754c2.754,0.887,2.755,0.888,6.786-1.146c0.48-0.242,0.583,0.171,0.786,0.42
	c-1.245,2.159-4.528,2.959-2.706,7.031c1.651,3.691,2.555,6.674,7.343,5.372c0.213-0.058,0.481,0.104,0.728,0.146
	c8.129,1.411,13.984,6.118,18.538,12.74c0.508,0.739,0.593,2.118,1.99,1.774c1.334-0.328,0.919-1.568,1.096-2.491
	c1.982-10.351-1.406-19.085-8.003-26.897c-1.16-1.374-2.523-1.793-4.229-1.92c-5.491-0.407-10.214,1.689-14.807,4.296
	c-0.418-2.258,1.703-2.297,2.828-2.943c3.639-2.089,7.809-2.533,12.496-2.847c-2.662-2.561-4.984-4.25-7.622-5.34
	c-6.139-2.536-12.363-5.245-18.235,0.648c-0.479-2.456,2.402-2.454,3.085-4.316c-5.553-0.762-10.623,1.001-16.682,2.03
	c1.479,0.83,2.011,1.143,2.556,1.432c3.526,1.873,6.926,5.529,10.932,0.793c-2.365,2.956-2.497,5.445,1.098,7.707
	c1.005,0.631,2.941,1.47,2.049,3.533c-6.951-6.72-14.705-11.993-24.422-13.885c-17.484-3.405-33.533-0.786-47.566,10.916
	c-0.852,0.71-1.488,2.929-3.427,1.471C37.268,15.873,54.544,12.199,73.812,16.05c3.538,0.708,6.727,0.936,10.443-0.078
	c17.754-4.847,38.439,1.278,47.358,19.395c6.791,13.795,1.977,30.517-5.508,37.329c-1.167-1.649,0.763-2.161,1.194-3.22
	c1.215-2.975,4.721-5.477,3.12-9.037c-3.464-7.704-9.177-13.311-17.509-15.552c-6.631-1.784-6.86-1.473-8.971,5.043
	c-0.114,0.354-0.226,0.724-0.419,1.036c-1.832,2.961-1.249,4.909,2.15,6.212c1.707,0.654,3.102,2.08,4.023,3.774
	c0.703,1.292,1.587,1.922,3.208,2.016c4.906,0.285,8.522,2.772,10.223,7.404c0.606,1.65,1.817,1.77,2.938,2.366
	c-1.549,1.795-2.007,4.116-3.001,6.177C122.451,80.186,122.16,81.979,120.062,81.747z"/>
<path fill-rule="evenodd" clip-rule="evenodd" fill="#0D0E0D" d="M22.521,30.205c1.454,1.74-0.581,2.377-1.222,3.164
	C11.018,45.99,10.238,60.117,14.697,75.001c1.831,6.113,6.257,9.76,12.45,11.117c16.366,3.586,31.908,0.905,46.833-6.312
	c1.072-0.519,1.976-1.572,4.578-0.991c-5.083,1.551-3.274,4.987-3.574,7.82c-0.702,6.652-7.914,12.91-15.788,13.74
	c-6.562,0.692-13.142-2.67-15.873-8.739c-1.422-3.162-3.917-1.834-5.979-2.334c-2.093-0.508-1.966,1.398-2.438,2.555
	c-2.829,6.943-7.973,12.267-12.529,18.006c-4.878,6.146-9.724,12.295-11.454,20.251c-0.515,2.372-0.376,4.716-0.404,7.081
	c-0.016,1.293,0.116,2.653,1.488,3.137c1.149,0.404,2.02-0.553,2.97-1.157c1.788-1.137,2.503-3.928,5.312-3.484
	c-1.194,2.083-3.067,3.565-4.872,5.002c-3.211,2.561-5.988,1.329-6.472-2.801c-0.687-5.854,0.697-11.314,3.458-16.479
	c2.651-4.96,6.103-9.34,9.73-13.593c1.247-1.462,2.664-2.804-0.104-4.134c-0.314-0.151-0.731-0.516-0.746-0.8
	c-0.319-6.272-7.932-11.124-3.583-18.281c0.546-0.899-0.076-1.287-0.489-1.896C6.276,66.586,8.586,43.848,22.521,30.205z
	 M73.493,85.214c-0.257-0.744,0.509-2.151-0.925-2.692c-1.19-0.45-6.127,3.174-6.487,4.599c-0.536,2.124-2.393,3.424-3.646,1.677
	c-1.768-2.466-3.352-1.617-5.409-1.229c-3.537,0.667-7.113,1.231-10.698,1.507c-2.478,0.19-2.305,1.141-1.382,2.799
	c2.311,4.155,6.127,5.965,10.552,6.794C63.817,100.225,73.516,93.099,73.493,85.214z M27.139,97.956
	c2.393,0.059,3.841-1.081,5.482-4.725c0.556-1.236,2.108-2.845,0.668-3.946c-1.069-0.817-2.992-1.07-4.386,0.492
	c-1.149,1.287-2.95,1.161-3.263-0.391c-0.484-2.398-2.417-2.43-3.844-3.388c-2.938-1.974-3.606-0.307-3.787,2.245
	C17.65,93.305,21.907,97.828,27.139,97.956z M28.271,99.436c-1.303-0.194-2.617-0.541-3.929-0.533
	c-0.875,0.005-1.854-1.403-2.534-0.1c-0.44,0.841-0.07,1.876,0.47,2.805c1.484,2.551,2.741,2.729,4.454,0.383
	C27.28,101.241,28.309,100.752,28.271,99.436z"/>
<path fill-rule="evenodd" clip-rule="evenodd" fill="#0D0E0D" d="M36.886,113.733c2.96,3.169,2.591,6.014-1.455,9.66
	c-2.11,1.903-4.222,3.464-4.367,6.857c-0.209,4.897,0.961,6.701,5.936,6.868c8.348,0.281,16.199-2.143,23.939-4.833
	c10.444-3.631,20.521-8.058,29.362-14.892c0.345-0.267,0.883-0.283,1.331-0.418c0.117,1.817-1.473,2.248-2.554,3.007
	c-11.572,8.113-24.511,13.209-37.998,17.065c-1.051,0.3-2.229,0.223-3.007,1.322c2.336,1.066,5.218,2.313,6.856,0.192
	c1.544-2,2.569-1.454,4.192-0.948c2.073,0.646,4.403,0.48,5.216-1.597c1.008-2.573,2.66-2.063,4.436-1.787
	c2.068,0.322,4.216,0.008,4.395-2.23c0.198-2.481,1.551-1.71,2.704-1.557c4.773,0.635,7.188-4.434,11.563-4.711
	c0.065-0.004,0.189-0.216,0.167-0.3c-0.905-3.359,1.653-2.311,3.228-2.59c0.584-0.103,1.617-0.502,1.606-0.724
	c-0.163-3.129,2.752-3.46,4.338-4.992c0.595-0.573,1.257-1.492,0.323-2.245c-0.751-0.604-1.525-0.169-2.326,0.386
	c-0.984,0.683-1.462,2.415-3.189,1.758c-0.748-1.043,2.617-1.384,0.436-2.82c-0.646-0.426,0.046-1.006,0.786-1.065
	c3.547-0.284,6.869,0.001,9.172,3.491c-4.139-0.649-5.462,2.838-7.348,4.982c-1.087,1.237-1.794,2.604-3.535,2.752
	c-2.145,0.183-2.045,3.109-3.763,3.263c-4.343,0.387-6.694,5.528-11.595,4.561c-1.513-0.299-1.73,1.609-2.109,2.607
	c-0.339,0.891,0.824,1.316,1.645,1.634c1.328,0.515,2.661,0.707,3.975,0.018c2.629-1.381,4.056-0.376,4.676,2.299
	c-1.986-0.67-3.895-1.05-6.089-0.489c-1.779,0.455-3.496-0.612-5.238-1.405c-2.336-1.064-5.116-2.573-7.377,0.575
	c-0.467,0.65-1.492,1.427-2.145,1.335c-5.65-0.8-11.333,5.081-16.948-0.077c-0.577-0.53-1.384-0.327-2.148-0.221
	c-1.232,0.168-2.487,0.2-3.734,0.231c-9.095,0.22-10.489-1.033-10.916-10.015c-3.675,1.592-5.548,5.356-9.012,6.986
	c-1.079-1.247,0.34-1.631,0.86-2.155c3.923-3.953,8.184-7.51,12.675-10.814c3.609-2.655,4.198-5.178,2.276-8.341
	C36.378,114.149,36.632,113.941,36.886,113.733z"/>
<path fill-rule="evenodd" clip-rule="evenodd" fill="#1C1A13" d="M95.202,49.497c-0.382,1.782-1.394,2.802-3.136,2.686
	c-1.83-0.123-2.601-1.391-2.437-3.099c0.136-1.421,0.654-2.875,2.459-2.646C93.812,46.655,95.031,47.68,95.202,49.497z"/>
<path fill-rule="evenodd" clip-rule="evenodd" fill="#1C1A13" d="M113.618,71.371c1.504,3.087,2.053,5.71-1.287,8.7
	c1.056-3.242,1.824-5.93-0.22-7.705c-1.416-1.229-1.981,1.792-3.533,1.768c1.254-4.04,4.537-5.342,9.225-3.182
	C116.209,71.112,115.128,71.22,113.618,71.371z"/>
<path fill-rule="evenodd" clip-rule="evenodd" fill="#1C1A13" d="M86.158,41.05c-0.234,2.095-1.333,3.642-3.432,3.749
	c-2.209,0.113-3.883-1.128-3.927-3.518c-0.038-2.051,1.055-3.708,3.246-3.811C84.334,37.362,85.631,38.853,86.158,41.05z
	 M84.652,41.238c-0.325-1.322-0.895-2.376-2.415-2.374c-1.643,0.002-2.014,1.091-1.979,2.482c0.041,1.616,1.016,2.093,2.439,2.035
	C84.086,43.323,84.564,42.445,84.652,41.238z"/>
<path fill-rule="evenodd" clip-rule="evenodd" fill="#1C1A13" d="M80.301,58.367c0.06,2.406-0.608,3.597-2.454,3.74
	c-1.606,0.125-2.197-0.951-2.283-2.32c-0.119-1.893,0.829-3.189,2.71-3.292C79.812,56.413,80.272,57.679,80.301,58.367z"/>
<path fill-rule="evenodd" clip-rule="evenodd" fill="#1C1A13" d="M33.778,113.772c-2.622,0.899-5.617,0.842-7.66,3.221
	c1.529-3.697,5.672-5.224,9.828-3.85C35.186,113.223,34.329,112.968,33.778,113.772z"/>
<path fill-rule="evenodd" clip-rule="evenodd" fill="#0D0E0D" d="M33.778,113.772c0.55-0.804,1.408-0.55,2.168-0.629
	c0.313,0.197,0.626,0.393,0.939,0.59c-0.254,0.208-0.507,0.416-0.761,0.624C35.342,114.162,34.561,113.967,33.778,113.772z"/>
<path fill-rule="evenodd" clip-rule="evenodd" fill="#353634" d="M149.131,210.585c-0.076,4.741-0.543,9.422-1.853,14.013
	c-0.532,1.868-1.497,2.973-3.409,3.519c-8.302,2.366-16.79,2.355-25.247,1.711c-3.476-0.265-0.433-2.315-0.006-2.882
	c7.306-9.683,13.854-19.825,19.05-30.799c1.81-3.822,3.232-7.83,5.07-11.637c1.563-3.239,0.949-5.728-1.369-8.404
	c-4.398-5.078-4.272-5.188,1.138-8.836c9.137-6.163,9.706-7.712,6.729-18.471c-2.035-7.353-4.832-14.388-8.706-20.982
	c-0.402-0.687-1.161-1.329-0.758-2.708c7.311,3.715,12.407,9.514,16.465,16.248c8.673,14.395,13.016,30.36,16.254,46.653
	c2.949,14.842,3.129,29.698-0.749,44.451c-0.475,1.804-1.019,3.592-1.606,5.362c-2.501,7.523-6.931,12.642-15.407,13.761
	c-13.373,1.766-26.717,2.218-40.508,0.686c5.053-6.323,5.816-12.933,2.139-19.934c0.209-0.223,0.419-0.446,0.628-0.671
	c5.76-0.003,11.519-0.006,17.277-0.009c0.276,0.439,0.521,0.362,0.744-0.046c3.129-0.734,6.365-1.181,9.354-2.29
	c2.551-0.947,6.127-0.356,5.378-5.933c-0.597-4.435,1.098-9.521,1.324-14.346c0.468-9.981-0.753-19.832-2.869-29.577
	c-0.118-0.541-0.513-1.022-1.203-1.44c0.633,6.922,2.123,13.714,2.14,20.643c-0.084,0.066-0.25,0.161-0.239,0.192
	c0.062,0.169,0.167,0.322,0.258,0.48c0,3.523,0,7.047,0,10.571c-0.087,0.062-0.259,0.148-0.248,0.181
	C148.953,210.263,149.05,210.421,149.131,210.585z"/>
<path fill-rule="evenodd" clip-rule="evenodd" fill="#353634" d="M124.184,124.393c0.146-2.839-2.473-1.884-3.781-2.696
	c-1.318-0.818-3.372,0.394-4.396-1.429c-0.419-0.745-1.124-1.625-0.994-2.309c0.161-0.849,1.315-1.021,2.204-1.06
	c7.526-0.337,14.299,1.705,18.93,7.819c7.054,9.311,10.801,20.145,12.995,31.533c0.455,2.364-0.052,4.347-2.298,5.821
	c-3.229,2.118-6.241,4.57-9.461,6.706c-1.797,1.191-2.019,2.35-0.662,3.927c0.081,0.095,0.129,0.224,0.222,0.301
	c6.076,5.066,4.877,10.743,1.9,16.999c-6.077,12.769-12.886,25.064-21.557,36.271c-0.686,0.886-1.468,1.704-2.269,2.487
	c-1.044,1.021-2.42,0.921-3.463,0.307c-1.213-0.714-0.146-1.826,0.15-2.656c4.863-13.607,9.901-27.154,14.645-40.802
	c4.897-14.092,7.726-28.614,7.896-43.572c0.069-6.105-2.023-11.508-6.268-15.96c-0.97-1.018-1.96-2.391-3.779-1.689L124.184,124.393
	z"/>
<path fill-rule="evenodd" clip-rule="evenodd" fill="#353634" d="M96.664,167.094c1.99,20.781,5.088,41.334,13.076,60.927
	c-2.568-0.836-3.461-2.837-4.566-4.544c-4.26-6.583-8.636-13.134-9.58-21.235c-0.096-0.821-0.414-1.867-1.004-2.341
	c-4.749-3.812-5.509-9.573-7.271-14.798c-1.132-3.356-2.217-6.896,0.81-10.651c-3.359,1.712-3.658,2.169-3.519,5.388
	c0.247,5.694,2.8,10.772,4.444,16.077c-0.962,0.718-1.722-0.085-2.516-0.244c-7.961-1.594-8.057-1.634-6.149-9.464
	c1.615-6.625,3.492-13.186,5.305-19.973c1.691,1.014,3.147,1.887,4.606,2.756c0.588,1.958-2.279,2.541-1.486,4.611
	c0.495-1.781,5.216-1.553,2.043-5.073c-6.063-4.148-6.867-9.506-4.143-16.062c3.917-9.427,2.577-7.543,9.333-2.871
	c0.235,0.344,0.47,0.687,0.705,1.03c-0.031,3.26-0.062,6.521-0.093,9.78c-0.09,0.062-0.265,0.151-0.255,0.183
	c0.055,0.174,0.154,0.334,0.238,0.499c0,1.025,0,2.049,0,3.074c-0.087,0.066-0.258,0.164-0.247,0.193
	c0.064,0.172,0.17,0.328,0.263,0.489c-0.002,0.521-0.004,1.043-0.006,1.565c-0.088,0.064-0.261,0.161-0.25,0.19
	C96.467,166.772,96.572,166.931,96.664,167.094z"/>
<path fill-rule="evenodd" clip-rule="evenodd" fill="#EFB384" d="M110.725,224.168c-2.766-4.884-4.616-9.68-4.87-14.775
	c-0.548-11.009,0.53-21.926,3.048-32.678c0.17-0.726,0.429-1.433,0.676-2.138c0.438-1.253,1.066-2.167,2.662-2.038
	c1.826,0.148,1.33,1.604,1.385,2.499c0.393,6.349-0.196,12.994,2.046,18.909C119.893,205.087,113.287,213.951,110.725,224.168z"/>
<path fill-rule="evenodd" clip-rule="evenodd" fill="#F7F8F8" d="M124.198,124.39c6.342,5.58,8.862,12.643,8.209,20.974
	c-0.225,2.858-0.403,5.729-0.405,8.594c-0.003,6.221-4.062,9.894-8.305,13.434c-1.498,1.25-2.401,0.441-2.896-1.216
	c-1.022-3.427-1.848-6.933-3.51-10.132c-0.812-1.562,0.392-1.846,1.271-2.488c9.601-7.015,11.197-19.913,3.629-29.124
	c0.157-0.178,0.298-0.369,0.422-0.571c0.524,0.177,1.049,0.354,1.572,0.531C124.184,124.393,124.198,124.39,124.198,124.39z"/>
<path fill-rule="evenodd" clip-rule="evenodd" fill="#F7F8F8" d="M118.731,165.153c2.305,6.104,2.627,6.102,11.256-0.631
	c-2.145,12.979-6.196,24.635-11.174,36.794c-2.009-6.484-2.462-12.567-3.393-18.586
	C114.438,176.372,115.451,170.604,118.731,165.153z"/>
<path fill-rule="evenodd" clip-rule="evenodd" fill="#353634" stroke="#010101" stroke-miterlimit="10" d="M181.745,240.523
	c7.837,0.513,12.379-2.636,19.04-13.122c1.981,2.619,3.887,5.142,5.801,7.659c0.596,0.783,0.353,1.681,0.141,2.646
	c-1.295,5.882-8.505,12.864-14.33,13.798c-1.924,0.309-3.731,0.367-4.882-1.375C185.518,247.115,183.106,244.39,181.745,240.523z"/>
<path fill-rule="evenodd" clip-rule="evenodd" fill="#F4F4F4" d="M100.976,166.402c-1.084,1.792,0.395,2.122,1.5,2.286
	c2.417,0.36,1.516-2.001,2.443-3.266c2.179,4.218,4.261,7.895,2.43,13.101c-2.638,7.509-2.824,15.575-3.408,23.532
	c-2.792-11.206-4.515-22.562-5.449-34.062c-0.258-3.176,2.691,0.7,2.678-1.424C101.17,166.57,100.976,166.402,100.976,166.402z"/>
<path fill-rule="evenodd" clip-rule="evenodd" fill="#B6E3ED" d="M110.364,155.474c1.218,0.787,4.435-1.768,5.92,2.18
	c1.676,4.45,0.676,8.342-1.381,12.046c-1.292,2.327-5.69,1.744-6.884-0.86c-1.709-3.728-3.051-7.616-1.417-11.816
	C107.13,155.667,107.601,154.385,110.364,155.474z"/>
<path fill-rule="evenodd" clip-rule="evenodd" fill="#F4F4F4" d="M65.317,250.257c3.824-4.561,6.378-9.375,6.275-15.27
	c-0.017-0.967-0.323-2.348,1.179-2.116c1.263,0.194,2.936-0.672,3.783,1.315c1.84,4.314,0.201,12.63-3.252,15.694
	C70.83,252.073,68.199,251.079,65.317,250.257z"/>
<path fill-rule="evenodd" clip-rule="evenodd" fill="#017D7B" d="M75.683,250.316c2.826-4.239,3.581-8.931,3.116-13.917
	c-0.073-0.785-0.515-1.816,0.483-2.349c0.886-0.472,1.757,0.02,2.425,0.55c3.693,2.93,4.59,7.571,6.782,11.418
	c0.609,1.067-0.958,1.576-1.779,1.979c-3.392,1.664-6.959,2.68-10.785,2.558L75.683,250.316z"/>
<path fill-rule="evenodd" clip-rule="evenodd" fill="#F7F8F8" d="M100.976,166.402c0,0,0.194,0.167,0.194,0.168
	c-4.785-4.002-2.409-9.393-2.751-14.255c-0.015-0.213,0.136-0.614,0.257-0.634c2.261-0.371,3.735,1.617,5.782,1.96
	c0.979,0.165,1.56,0.745,1.102,1.864c-1.327,3.239-1.71,6.696-2.358,10.095C102.94,166.975,102.269,167.67,100.976,166.402z"/>
<path fill-rule="evenodd" clip-rule="evenodd" fill="#F2F2F2" d="M58.526,204.188c4.847-0.691,8.757-1.225,12.658-1.819
	c1.203-0.184,2.119,0.546,3.185,0.78c0.99,0.218,1.627,0.652,1.157,1.793c-0.353,0.855-0.357,1.888-1.905,1.637
	c-3.977-0.643-7.759,0.167-11.634,1.311C59.175,208.719,60.825,205.105,58.526,204.188z"/>
<path fill-rule="evenodd" clip-rule="evenodd" fill="#017D7B" d="M98.268,215.14c2.987,4.733,5.593,8.862,8.374,13.268
	c-3.497,0.256-5.71-0.578-6.412-4.121C99.67,221.463,98.535,218.755,98.268,215.14z"/>
<path fill-rule="evenodd" clip-rule="evenodd" fill="#017D7B" d="M85.336,210.736c-2.545-1.151-4.424-2.841-6.94-3.271
	c-1.506-0.256-1.321-1.619-1.07-2.696c0.286-1.228,1.316-0.832,2.123-0.697C83.05,204.673,85.158,206.938,85.336,210.736z"/>
<path fill-rule="evenodd" clip-rule="evenodd" fill="#017D7B" d="M76.019,217.667c3.735,0.194,5.254,2.361,6.023,5.531
	C78.049,223.596,76.484,221.433,76.019,217.667z"/>
<path fill-rule="evenodd" clip-rule="evenodd" fill="#008F8B" d="M110.163,255.585c-0.807-0.514-0.645-1.325-0.642-2.088
	C110.604,253.927,110.139,254.83,110.163,255.585z"/>
<path fill-rule="evenodd" clip-rule="evenodd" fill="#008F8B" d="M181.412,260.834c-0.859-0.695-0.853-1.41-0.049-2.143
	C181.38,259.406,181.396,260.12,181.412,260.834z"/>
<path fill-rule="evenodd" clip-rule="evenodd" fill="#008F8B" d="M149.149,199.34c-0.091-0.158-0.195-0.312-0.258-0.48
	c-0.011-0.031,0.155-0.126,0.239-0.192C149.205,198.89,149.211,199.114,149.149,199.34z"/>
<path fill-rule="evenodd" clip-rule="evenodd" fill="#008F8B" d="M149.131,210.585c-0.081-0.164-0.178-0.322-0.229-0.493
	c-0.011-0.032,0.161-0.119,0.248-0.181C149.212,210.137,149.206,210.362,149.131,210.585z"/>
<path fill-rule="evenodd" clip-rule="evenodd" fill="#008F8B" d="M96.664,167.094c-0.091-0.164-0.197-0.322-0.26-0.495
	c-0.01-0.03,0.163-0.126,0.25-0.19C96.716,166.637,96.719,166.865,96.664,167.094z"/>
<path fill-rule="evenodd" clip-rule="evenodd" fill="#008F8B" d="M96.66,164.844c-0.093-0.161-0.199-0.317-0.263-0.489
	c-0.011-0.029,0.16-0.126,0.247-0.193C96.717,164.388,96.723,164.616,96.66,164.844z"/>
<path fill-rule="evenodd" clip-rule="evenodd" fill="#008F8B" d="M111.844,262.408c0.09,0.162,0.195,0.318,0.257,0.49
	c0.01,0.03-0.162,0.125-0.249,0.189C111.783,262.862,111.781,262.635,111.844,262.408z"/>
<path fill-rule="evenodd" clip-rule="evenodd" fill="#008F8B" d="M110.146,263.089c-0.086-0.165-0.186-0.325-0.241-0.499
	c-0.01-0.03,0.166-0.12,0.256-0.183C110.223,262.636,110.218,262.863,110.146,263.089z"/>
<path fill-rule="evenodd" clip-rule="evenodd" fill="#008F8B" d="M117.703,254.262c-0.244,0.365-0.467,0.337-0.668-0.039
	C117.262,254.158,117.484,254.172,117.703,254.262z"/>
<path fill-rule="evenodd" clip-rule="evenodd" fill="#008F8B" d="M112.543,254.039c-0.239,0.27-0.479,0.538-0.718,0.807
	C111.831,254.369,112.005,254.043,112.543,254.039z"/>
<path fill-rule="evenodd" clip-rule="evenodd" fill="#008F8B" d="M96.644,161.088c-0.084-0.165-0.184-0.325-0.238-0.499
	c-0.01-0.031,0.165-0.12,0.255-0.183C96.722,160.636,96.717,160.863,96.644,161.088z"/>
<path fill-rule="evenodd" clip-rule="evenodd" fill="#017D7B" d="M75.925,250.555c-0.186,0.082-0.371,0.164-0.557,0.246
	c0.105-0.161,0.21-0.322,0.315-0.484C75.683,250.316,75.925,250.555,75.925,250.555z"/>
<path fill-rule="evenodd" clip-rule="evenodd" fill="#008F8B" d="M96.753,150.627c-0.235-0.343-0.47-0.686-0.705-1.03
	C96.283,149.939,96.519,150.283,96.753,150.627z"/>
<path fill-rule="evenodd" clip-rule="evenodd" fill="#F7F8F8" d="M122.191,124.432c-0.238-0.164-0.477-0.327-0.715-0.49
	c0.345-0.497,0.744-0.239,1.137-0.081C122.489,124.063,122.349,124.253,122.191,124.432z"/>
<path fill-rule="evenodd" clip-rule="evenodd" fill="#008F8B" d="M135.007,231.61c-0.224,0.408-0.468,0.485-0.744,0.046
	C134.511,231.641,134.759,231.626,135.007,231.61z"/>
<path fill-rule="evenodd" clip-rule="evenodd" fill="#008F8B" d="M116.985,231.665c-0.209,0.225-0.419,0.448-0.628,0.671
	C116.287,231.851,116.523,231.653,116.985,231.665z"/>
<path fill-rule="evenodd" clip-rule="evenodd" fill="#B0B5B7" d="M105.74,30.697c4.593-2.608,9.315-4.704,14.807-4.297
	c1.706,0.127,3.069,0.546,4.229,1.92c6.597,7.812,9.985,16.547,8.003,26.897c-0.177,0.923,0.238,2.163-1.096,2.491
	c-1.397,0.344-1.482-1.035-1.99-1.774c-4.554-6.622-10.409-11.329-18.538-12.74c-0.246-0.043-0.515-0.205-0.728-0.146
	c-4.789,1.302-5.692-1.681-7.343-5.372c-1.822-4.072,1.461-4.872,2.706-7.032C105.791,30.644,105.74,30.697,105.74,30.697z"/>
<path fill-rule="evenodd" clip-rule="evenodd" fill="#B1B6B8" d="M126.065,72.738c-1.121-0.596-2.332-0.715-2.938-2.366
	c-1.7-4.632-5.316-7.119-10.223-7.404c-1.621-0.094-2.505-0.724-3.208-2.016c-0.922-1.694-2.317-3.121-4.023-3.774
	c-3.399-1.303-3.982-3.251-2.15-6.212c0.193-0.312,0.305-0.682,0.419-1.036c2.111-6.516,2.339-6.827,8.971-5.043
	c8.332,2.241,14.045,7.848,17.509,15.552c1.601,3.561-1.905,6.062-3.12,9.037c-0.432,1.059-2.361,1.57-1.194,3.22
	C126.107,72.696,126.065,72.738,126.065,72.738z"/>
<path fill-rule="evenodd" clip-rule="evenodd" fill="#B1B6B8" d="M95.951,62.874c1.928-0.708,2.758-2.569,3.538-4.102
	c1.52-2.986,3.238-2.391,5.262-0.899c0.798,0.588,1.512,1.301,2.21,2.011c1.771,1.799,3.591,3.507-0.049,5.425
	c-1.107,0.584-1.821,2.006-2.583,3.134c-0.931,1.377-1.354,3.464-4.005,2.379c2.113,3.458,4.413,6.819,6.29,10.4
	c2.324,4.436,0.748,7.823-3.946,9.383c-1.706,0.566-2.645,0.257-3.382-1.605c-1.963-4.958-3.998-9.908-6.381-14.673
	c-1.816-3.631-2-6.54,1.647-9.041c0.762-0.523,1.579-1.282,1.441-2.461L95.951,62.874z"/>
<path fill-rule="evenodd" clip-rule="evenodd" fill="#B1B6B8" d="M98.245,31.396c0.892-2.063-1.044-2.902-2.049-3.533
	c-3.595-2.262-3.463-4.751-1.099-7.707l0.11,0.061c5.872-5.894,12.097-3.185,18.235-0.648c2.638,1.09,4.96,2.779,7.622,5.34
	c-4.688,0.313-8.857,0.758-12.496,2.847c-1.125,0.646-3.247,0.685-2.828,2.943c0,0,0.051-0.053,0.05-0.053
	c-0.203-0.249-0.305-0.662-0.786-0.419c-4.031,2.034-4.031,2.032-6.786,1.146L98.245,31.396z"/>
<path fill-rule="evenodd" clip-rule="evenodd" fill="#B0B5B7" d="M95.207,20.216l-0.11-0.061c-4.005,4.735-7.405,1.079-10.931-0.793
	c-0.544-0.29-1.077-0.602-2.556-1.432c6.059-1.029,11.129-2.792,16.682-2.03C97.609,17.762,94.728,17.76,95.207,20.216z"/>
<path fill-rule="evenodd" clip-rule="evenodd" fill="#F7F8F8" d="M73.493,85.214c0.023,7.885-9.675,15.011-17.995,13.454
	c-4.424-0.829-8.241-2.639-10.552-6.794c-0.922-1.658-1.095-2.608,1.382-2.799c3.585-0.276,7.161-0.84,10.698-1.507
	c2.057-0.388,3.641-1.237,5.409,1.229c1.253,1.748,3.109,0.447,3.646-1.677c0.36-1.425,5.297-5.048,6.487-4.599
	C74.002,83.062,73.236,84.47,73.493,85.214z"/>
<path fill-rule="evenodd" clip-rule="evenodd" fill="#F7F8F8" d="M27.139,97.956c-5.232-0.128-9.489-4.651-9.13-9.714
	c0.181-2.552,0.848-4.219,3.787-2.245c1.426,0.958,3.359,0.99,3.844,3.388c0.313,1.551,2.114,1.677,3.263,0.391
	c1.394-1.562,3.317-1.309,4.386-0.492c1.44,1.102-0.112,2.71-0.668,3.946C30.98,96.875,29.532,98.015,27.139,97.956z"/>
<path fill-rule="evenodd" clip-rule="evenodd" fill="#F3DA0C" d="M28.271,99.436c0.037,1.316-0.991,1.805-1.539,2.555
	c-1.713,2.346-2.969,2.167-4.454-0.383c-0.54-0.929-0.91-1.963-0.47-2.805c0.681-1.303,1.659,0.104,2.534,0.1
	C25.654,98.895,26.968,99.241,28.271,99.436z"/>
<path fill-rule="evenodd" clip-rule="evenodd" fill="#F2F2F2" d="M91.582,117.026c1.727,0.656,2.205-1.076,3.189-1.758
	c0.801-0.556,1.575-0.99,2.326-0.386c0.934,0.752,0.271,1.671-0.323,2.245c-1.586,1.531-4.501,1.863-4.338,4.992
	c0.011,0.221-1.021,0.621-1.606,0.724c-1.575,0.28-4.133-0.769-3.228,2.59c0.022,0.084-0.102,0.295-0.167,0.3
	c-4.376,0.277-6.791,5.346-11.563,4.711c-1.153-0.153-2.506-0.924-2.704,1.557c-0.178,2.238-2.326,2.552-4.395,2.23
	c-1.775-0.276-3.427-0.786-4.436,1.787c-0.813,2.077-3.143,2.243-5.216,1.597c-1.623-0.506-2.648-1.052-4.192,0.948
	c-1.638,2.121-4.52,0.874-6.856-0.192c0.778-1.099,1.956-1.021,3.007-1.322c13.487-3.856,26.425-8.952,37.998-17.065
	c1.082-0.759,2.671-1.189,2.554-3.007C91.633,116.977,91.582,117.026,91.582,117.026z"/>
<path fill-rule="evenodd" clip-rule="evenodd" fill="#F3DA0C" d="M84.652,41.238c-0.088,1.208-0.566,2.085-1.955,2.143
	c-1.423,0.059-2.398-0.419-2.439-2.035c-0.035-1.391,0.337-2.48,1.979-2.482C83.757,38.862,84.328,39.916,84.652,41.238z"/>
<path fill-rule="evenodd" clip-rule="evenodd" fill="#0D0E0D" d="M90.858,168.53c3.172,3.521-1.549,3.292-2.043,5.073
	c-0.793-2.07,2.074-2.654,1.486-4.611C90.479,168.833,90.665,168.678,90.858,168.53z"/>
<rect x="40.375" y="159.334" fill-rule="evenodd" clip-rule="evenodd" fill="#FFFFFF" stroke="#010101" stroke-miterlimit="10" width="148.959" height="102"/>
<path fill-rule="evenodd" clip-rule="evenodd" fill="#F3DA0C" stroke="#010101" stroke-miterlimit="10" d="M182.213,218.039
	c-0.686-1.772-1.096-3.13-1.402-4.495c-1.103-4.904-4.633-6.908-12.267-7.448c-2.362-0.167-4.72-0.407-7.085-0.536
	c-1.598-0.086-2.707-0.797-2.739-2.406c-0.032-1.639,1.048-3.392,2.515-3.2c4.199,0.55,8.262-1.216,12.448-0.319
	c4.146,0.888,7.515,3.066,11.067,6.416c-0.223-1.475-0.418-2.297-0.463-3.127c-0.336-6.427-2.137-8.517-8.516-9.562
	c-2.357-0.387-4.664-0.808-6.577-2.352c-0.999-0.807-1.87-1.76-1.396-3.185c0.471-1.419,1.644-0.403,2.459-0.624
	c5.712-1.551,10.975,0.562,16.322,1.93c2.957,0.756,4.641,2.717,5.023,5.764c1.318,10.508,3.264,20.777,8.207,30.386
	c2.342,4.55-0.739,11.526-4.668,13.144c-2.986,1.23-5.281,0.523-7.291-1.862c-1.463-1.737-2.541-3.705-3.336-5.781
	c-2.049-5.341-5.869-8.028-11.539-8.441c-2.613-0.19-5.208-0.634-7.83-0.261c-2.844,0.404-5.32-0.349-5.521-3.449
	c-0.224-3.46,3.277-3.508,5.157-3.262c3.124,0.41,6.052-0.045,9.079-0.265C176.754,214.891,179.242,216.446,182.213,218.039z"/>
<path fill-rule="evenodd" clip-rule="evenodd" fill="#F3DA0C" stroke="#010101" stroke-miterlimit="10" d="M51.373,187.026
	c-5.702-1.226-11.316-1.41-16.608,1.509c-2.811,1.551-2.761,4.025-2.058,6.81c0.719,2.849,2.505,3.209,4.992,2.881
	c0.292-0.039,0.589-0.054,0.886-0.07V193h3.624c2.858-0.23,5.717-0.457,8.567-0.766c1.086-0.118,3.089,0.172,2.828-1.36
	C53.388,189.609,53.542,187.492,51.373,187.026z"/>
<path fill-rule="evenodd" clip-rule="evenodd" fill="#F3DA0C" stroke="#010101" stroke-miterlimit="10" d="M38.835,201h5.656
	c1.542-0.193,3.083-0.396,4.618-0.636c1.771-0.276,2.773-1.005,2.433-3.267c-0.294-1.949-0.438-3.185-2.823-3.462
	c-2.075-0.241-3.811,1.35-5.792,0.719c-3.862-1.229-6.48,0.771-8.572,3.491c-1.762,2.291-1.35,4.974-0.025,7.401
	c1.025,1.878,2.338,3.068,4.505,2.97V201z"/>
<path fill-rule="evenodd" clip-rule="evenodd" fill="#F3DA0C" stroke="#010101" stroke-miterlimit="10" d="M48.4,202.597
	c-4.47-0.893-8.956-1.061-13.208,0.802c-4.041,1.769-5.146,4.792-3.216,8.898c1.928,4.103,4.729,7.353,8.192,9.836v-11.3h0.458
	v-0.577c-0.311-0.084-0.622-0.17-0.925-0.273c2.595-1.072,5.387-0.536,7.943-1.44c1.69-0.598,2.205-1.804,2.328-3.428
	C50.068,203.834,49.764,202.869,48.4,202.597z"/>
<text transform="matrix(1 0 0 1 51.3828 204.3447)"><tspan x="0" y="0" fill="#54BE8C" font-family="'Quicksand-Bold'" font-size="23">Calculate </tspan><tspan x="0" y="27.6" fill="#54BE8C" font-family="'Quicksand-Bold'" font-size="23">       -&gt;</tspan></text>
<text transform="matrix(1 0 0 1 72.7637 177.2847)" fill="#010101" font-family="'Quicksand-Bold'" font-size="16">Finished?</text>
<text transform="matrix(1 0 0 1 90.0439 248.3301)" fill="#010101" font-family="'Quicksand-Bold'" font-size="10">(click me)</text>
</svg>
