<?xml version="1.0" encoding="UTF-8" standalone="no"?>
<svg width="226px" height="211px" viewBox="0 0 226 211" version="1.1" xmlns="http://www.w3.org/2000/svg" xmlns:xlink="http://www.w3.org/1999/xlink">
    <!-- Generator: Sketch 41.2 (35397) - http://www.bohemiancoding.com/sketch -->
    <title>conversation</title>
    <desc>Created with Sketch.</desc>
    <defs></defs>
    <g id="Page-1" stroke="none" stroke-width="1" fill="none" fill-rule="evenodd">
        <g id="Login-Screen" transform="translate(-608.000000, -333.000000)" fill="#353534">
            <g id="conversation" transform="translate(608.000000, 333.000000)">
                <g id="Capa_1">
                    <g id="Group">
                        <path d="M220.592638,131.250329 C213.752556,126.761952 210.008998,120.422697 207.929243,114.870066 C219.067485,102.793092 225.722699,87.4308114 225.722699,70.6803728 C225.722699,31.8582237 189.858487,0.393311404 145.629039,0.393311404 C106.206135,0.393311404 73.4846626,25.3801535 66.8294479,58.3257675 C70.6654397,57.8630482 74.5476483,57.6316886 78.4760736,57.6316886 C127.974233,57.6316886 168.460123,93.1685307 170.447444,137.497039 C177.102658,135.59989 183.341922,132.96239 189.119018,129.677083 C200.39591,136.432785 212.597137,136.201425 219.714519,135.229715 C221.748057,134.998355 222.302658,132.360855 220.592638,131.250329 Z" id="Shape"></path>
                        <path d="M78.4760736,71.2819079 C35.2171779,71.2819079 0,102.561732 0,141.013706 C0,155.635636 5.22249489,169.933662 14.7431493,181.733004 C12.9869121,184.972039 10.5836401,187.563268 7.67198364,189.506689 C4.57546012,191.542654 3.09652352,195.198136 3.88220859,198.807346 C4.66789366,202.370285 7.5795501,205.054057 11.2306748,205.563048 C13.7263804,205.933224 16.3145194,206.072039 18.8564417,206.072039 C26.3897751,206.072039 33.3685072,204.545066 39.5615542,201.583662 C51.393047,207.599013 64.79591,210.791776 78.4760736,210.791776 C121.734969,210.791776 156.952147,179.511952 156.952147,141.059978 C156.952147,102.608004 121.734969,71.2819079 78.4760736,71.2819079 Z M78.4760736,197.095285 C65.8126789,197.095285 53.4728016,193.902522 42.8891616,187.887171 L39.4229039,185.897478 L36.002863,187.933443 C32.4903885,190.01568 28.5619632,191.403838 24.2638037,192.005373 C26.2511247,189.275329 27.8687117,186.17511 29.0703476,182.843531 L30.5030675,178.910417 L27.6838446,175.856469 C18.4404908,165.815461 13.5415133,153.738487 13.5415133,140.921162 C13.5415133,109.965241 42.6580777,84.8395833 78.4298569,84.8395833 C114.201636,84.8395833 143.364417,110.057785 143.364417,141.013706 C143.364417,171.969627 114.247853,197.095285 78.4760736,197.095285 Z" id="Shape"></path>
                        <path d="M80.6944785,125.558882 C85.408589,125.605154 89.2907975,121.672039 89.3370143,116.859759 C89.3832311,112.001206 85.5472393,108.068092 80.7406953,108.02182 C75.9341513,108.02182 72.005726,111.86239 71.9595092,116.720943 C71.9595092,121.533224 75.8417178,125.51261 80.6944785,125.558882 Z" id="Shape"></path>
                        <path d="M91.0932515,165.028838 C90.2613497,165.352741 89.4756646,165.954276 88.6437628,166.27818 C87.5807771,166.694627 86.5177914,167.064803 85.408589,167.203618 C84.0683027,167.342434 83.0977505,166.648355 82.7742331,165.352741 C82.5431493,164.381031 82.404499,163.316776 82.4969325,162.345066 C82.7280164,160.262829 83.1439673,158.226864 83.5137014,156.144627 C84.6229039,149.944189 85.8245399,143.74375 86.8875256,137.497039 C87.1648262,135.83125 87.4883436,134.119189 87.4421268,132.407127 C87.39591,130.371162 86.194274,129.399452 84.1607362,129.399452 L75.7030675,129.399452 L67.7075665,129.399452 C67.0605317,129.399452 66.3672802,129.445724 65.7202454,129.538268 C64.4723926,129.769627 63.8715746,130.371162 63.7791411,131.342873 C63.6867076,132.222039 64.1488753,133.101206 65.3042945,133.517654 C66.2286299,133.841557 67.199182,133.934101 68.1697342,134.072917 C70.3881391,134.39682 71.1276074,135.183443 71.1276074,137.450768 C71.1276074,137.820943 71.0813906,138.144846 71.0351738,138.515022 C70.1108384,143.97511 69.0940695,149.388925 68.1697342,154.849013 C67.6613497,157.995504 67.1529652,161.095724 66.7370143,164.242215 C66.0899796,168.823136 70.5267894,173.172697 73.993047,173.635417 C76.0728016,173.913048 78.198773,174.005592 80.3247444,173.95932 C84.8539877,173.913048 88.6437628,171.969627 91.8327198,168.776864 C92.3873211,168.221601 92.8494888,167.434978 93.0343558,166.694627 C93.40409,165.399013 92.3873211,164.519846 91.0932515,165.028838 Z" id="Shape"></path>
                    </g>
                </g>
            </g>
        </g>
    </g>
</svg>